<?xml version="1.0" encoding="UTF-8"?>
<svg width="30px" height="39px" viewBox="0 0 30 39" version="1.1" xmlns="http://www.w3.org/2000/svg" xmlns:xlink="http://www.w3.org/1999/xlink">
    <!-- Generator: Sketch 46.2 (44496) - http://www.bohemiancoding.com/sketch -->
    <title>logo</title>
    <desc>Created with Sketch.</desc>
    <defs>
        <linearGradient x1="0%" y1="0%" x2="101.999998%" y2="100.999999%" id="linearGradient-1">
            <stop stop-color="#51C7FF" offset="0%"></stop>
            <stop stop-color="#8407C3" offset="100%"></stop>
        </linearGradient>
        <linearGradient x1="50%" y1="0%" x2="50%" y2="100%" id="linearGradient-2">
            <stop stop-color="#C8C8C8" offset="0%"></stop>
            <stop stop-color="#979797" offset="100%"></stop>
        </linearGradient>
    </defs>
    <g id="Not-Logged" stroke="none" stroke-width="1" fill="none" fill-rule="evenodd">
        <g id="Index" transform="translate(-797.000000, -425.000000)" fill-rule="nonzero">
            <g id="map" transform="translate(414.000000, 101.000000)">
                <g id="logo" transform="translate(382.000000, 323.000000)">
                    <path d="M16.025641,2.32450331 C8.32020196,2.32450331 2.05128205,8.63835444 2.05128205,16.3991245 C2.05128205,19.687615 3.17689645,22.7160166 5.0603569,25.1146803 L16.025641,39 L26.9909252,25.1146803 C28.8743856,22.7160166 30,19.687615 30,16.3991245 C30,8.63835444 23.7310801,2.32450331 16.025641,2.32450331 Z" id="Shape" stroke="url(#linearGradient-2)" stroke-width="1" fill="url(#linearGradient-1)"></path>
                    <g id="logo&gt;food" transform="translate(6.153846, 6.198675)" fill="#FFFFFF">
                        <path d="M6.96601586,8.60314062 L6.96601586,16.9546164 C6.96601586,17.1723597 7.0503336,17.3606972 7.21931209,17.5197365 C7.38531801,17.6761637 7.58176407,17.7548755 7.8081072,17.7573529 C8.03430742,17.7548755 8.23089639,17.6761368 8.3970738,17.5197365 C8.56588079,17.3606972 8.65016996,17.1723597 8.65016996,16.9546164 L8.65016996,8.60314062 C8.90346618,8.5195817 9.85294118,7.72228473 9.85294118,7.46665313 L9.85294118,4.10768147 C9.85294118,3.99907911 9.81061081,3.90480267 9.72629306,3.82520223 C9.64180382,3.74576336 9.54173724,3.70588235 9.42646487,3.70588235 C9.31084952,3.70588235 9.21095443,3.74576336 9.12663668,3.82520223 C9.04214744,3.90496424 8.99998857,3.99907911 8.99998857,4.10768147 L8.99998857,6.71946997 C8.99998857,6.82839547 8.9576582,6.92251033 8.87334045,7.0019492 C8.78885121,7.08154965 8.68895612,7.12110751 8.57351226,7.12110751 C8.45789691,7.12110751 8.35800182,7.08154965 8.27368407,7.0019492 C8.18936632,6.92251033 8.14703596,6.8282339 8.14703596,6.71946997 L8.14703596,4.10768147 C8.14703596,3.99907911 8.10470559,3.90480267 8.02038784,3.82520223 C7.9360701,3.74576336 7.83603209,3.70588235 7.72058824,3.70588235 C7.60497288,3.70588235 7.50507779,3.74576336 7.42076004,3.82520223 C7.3362708,3.90496424 7.29411193,3.99907911 7.29411193,4.10768147 L7.29411193,6.71946997 C7.29411193,6.82839547 7.25178156,6.92251033 7.16746382,7.0019492 C7.08297458,7.08154965 6.98307948,7.12110751 6.86763563,7.12110751 C6.75202027,7.12110751 6.65212518,7.08154965 6.56780744,7.0019492 C6.48331819,6.92251033 6.44115932,6.8282339 6.44115932,6.71946997 L6.44115932,4.10768147 C6.44115932,3.99907911 6.39900045,3.90480267 6.31451121,3.82520223 C6.23019346,3.74576336 6.13015546,3.70588235 6.01468302,3.70588235 C5.89906767,3.70588235 5.79917257,3.74576336 5.71488341,3.82520223 C5.63056566,3.90496424 5.58823529,3.99907911 5.58823529,4.10768147 L5.58823529,7.46651849 C5.58832104,7.72209623 6.71271963,8.51942013 6.96601586,8.60314062 Z" id="Shape"></path>
                        <path d="M11.2371422,10.7686116 L12.1811408,10.7686116 L12.1811408,17.2651616 C12.1811408,17.4823842 12.2633355,17.6703714 12.4279478,17.8290159 C12.5899402,17.9851076 12.7815327,18.0637044 13.0022515,18.0661765 C13.2227752,18.0637044 13.414507,17.9850808 13.5765551,17.8290159 C13.7411675,17.6703714 13.8235294,17.4823842 13.8235294,17.2651616 L13.8235294,3.95240794 C13.8235294,3.8440385 13.7822788,3.74996427 13.7000562,3.67053455 C13.6176943,3.59126606 13.5203093,3.55147059 13.4077341,3.55147059 L13.1088621,3.55147059 C12.5369275,3.55147059 12.0473828,3.74784148 11.6402,4.14036831 C11.2330729,4.53305636 11.0294118,5.00503978 11.0294118,5.55626481 L11.0294118,10.5681832 C11.0294118,10.622462 11.0500371,10.6694856 11.0911484,10.7091199 C11.1320645,10.7487273 11.1808406,10.7686116 11.2371422,10.7686116 Z" id="Shape"></path>
                    </g>
                </g>
            </g>
        </g>
    </g>
</svg>