<?xml version="1.0" encoding="UTF-8"?>
<svg width="30px" height="39px" viewBox="0 0 30 39" version="1.1" xmlns="http://www.w3.org/2000/svg" xmlns:xlink="http://www.w3.org/1999/xlink">
    <!-- Generator: Sketch 46.2 (44496) - http://www.bohemiancoding.com/sketch -->
    <title>logo</title>
    <desc>Created with Sketch.</desc>
    <defs>
        <linearGradient x1="0%" y1="0%" x2="101.999998%" y2="100.999999%" id="linearGradient-1">
            <stop stop-color="#51C7FF" offset="0%"></stop>
            <stop stop-color="#8407C3" offset="100%"></stop>
        </linearGradient>
        <linearGradient x1="50%" y1="0%" x2="50%" y2="100%" id="linearGradient-2">
            <stop stop-color="#C8C8C8" offset="0%"></stop>
            <stop stop-color="#979797" offset="100%"></stop>
        </linearGradient>
    </defs>
    <g id="Not-Logged" stroke="none" stroke-width="1" fill="none" fill-rule="evenodd">
        <g id="Index" transform="translate(-797.000000, -425.000000)" fill-rule="nonzero">
            <g id="map" transform="translate(414.000000, 101.000000)">
                <g id="logo" transform="translate(382.000000, 323.000000)">
                    <path d="M16.025641,2.32450331 C8.32020196,2.32450331 2.05128205,8.63835444 2.05128205,16.3991245 C2.05128205,19.687615 3.17689645,22.7160166 5.0603569,25.1146803 L16.025641,39 L26.9909252,25.1146803 C28.8743856,22.7160166 30,19.687615 30,16.3991245 C30,8.63835444 23.7310801,2.32450331 16.025641,2.32450331 Z" id="Shape" stroke="url(#linearGradient-2)" stroke-width="1" fill="url(#linearGradient-1)"></path>
                    <g id="logo&gt;home" transform="translate(6.153846, 6.198675)" fill="#FFFFFF">
                        <polygon id="Shape" points="10.779082 3.6729758 17.2181224 11.2720588 18.2352941 11.2720588 10.768981 2.47058824 7.3851426 6.40969973 7.3851426 4.23088235 5.71847594 4.23088235 5.71847594 8.35461136 3.23529412 11.2720588 4.26736482 11.2720588"></polygon>
                        <path d="M10.6317196,4.94117647 L5.14705882,11.3277132 L5.14705882,18.375 L15.9673349,18.375 L15.9673349,11.2972574 L16.0294118,11.2972574 L10.6317196,4.94117647 Z M8.30556344,14.5966115 C8.2045234,14.735539 8.11785959,14.8872815 8.04450523,15.0506058 L6.83715546,15.0506058 C6.83715546,13.7101242 7.40722653,13.1453525 8.20152623,12.9607414 C7.80844034,12.7173099 7.54428336,12.260313 7.54428336,11.7444957 C7.54428336,10.9702872 8.13889055,10.3393493 8.87238335,10.3393493 C9.38992782,10.3393493 9.83802949,10.6511989 10.0571782,11.1067482 C9.1385215,11.3608499 8.45867289,12.2444953 8.45867289,13.2928055 C8.45867289,13.6158615 8.52516933,13.9306066 8.64764672,14.2175769 C8.52080058,14.3296412 8.40772107,14.4560754 8.30556344,14.5966115 Z M9.92870645,14.5157 C9.53562055,14.2722685 9.27141278,13.8152716 9.27141278,13.2994543 C9.27141278,12.5252458 9.86601997,11.8909299 10.5995128,11.8909299 C11.3330056,11.8909299 11.9276128,12.5184897 11.9276128,13.2927519 C11.9276128,13.80873 11.6632526,14.2725903 11.2699127,14.5160217 C12.0644664,14.700472 12.6347407,15.2650828 12.6347407,16.6055644 L8.56433568,16.6055644 C8.56433568,15.2650828 9.13435595,14.7003111 9.92870645,14.5157 Z M13.1544695,15.0506058 C13.0811151,14.8872279 12.9943497,14.7354317 12.8931573,14.5964506 C12.7909489,14.4560218 12.677209,14.3296948 12.550566,14.2177914 C12.6730434,13.9307138 12.739997,13.6159152 12.739997,13.2927519 C12.739997,12.227069 12.0375935,11.3320027 11.0958231,11.0950056 C11.3166989,10.6443357 11.7620574,10.3360249 12.2758936,10.3360249 C13.0093864,10.3360249 13.6039935,10.9635847 13.6039935,11.7378469 C13.6039935,12.253825 13.3396334,12.7176853 12.9462935,12.9611167 C13.7408472,13.145567 14.3111214,13.7101778 14.3111214,15.0506594 L13.1544695,15.0506594 L13.1544695,15.0506058 Z" id="Shape"></path>
                    </g>
                </g>
            </g>
        </g>
    </g>
</svg>