<?xml version="1.0" encoding="UTF-8"?>
<svg width="30px" height="39px" viewBox="0 0 30 39" version="1.1" xmlns="http://www.w3.org/2000/svg" xmlns:xlink="http://www.w3.org/1999/xlink">
    <!-- Generator: Sketch 46.2 (44496) - http://www.bohemiancoding.com/sketch -->
    <title>logo</title>
    <desc>Created with Sketch.</desc>
    <defs>
        <linearGradient x1="0%" y1="0%" x2="101.999998%" y2="100.999999%" id="linearGradient-1">
            <stop stop-color="#51C7FF" offset="0%"></stop>
            <stop stop-color="#8407C3" offset="100%"></stop>
        </linearGradient>
        <linearGradient x1="50%" y1="0%" x2="50%" y2="100%" id="linearGradient-2">
            <stop stop-color="#C8C8C8" offset="0%"></stop>
            <stop stop-color="#979797" offset="100%"></stop>
        </linearGradient>
    </defs>
    <g id="Not-Logged" stroke="none" stroke-width="1" fill="none" fill-rule="evenodd">
        <g id="Index" transform="translate(-797.000000, -425.000000)" fill-rule="nonzero">
            <g id="map" transform="translate(414.000000, 101.000000)">
                <g id="logo" transform="translate(382.000000, 323.000000)">
                    <path d="M16.025641,2.32450331 C8.32020196,2.32450331 2.05128205,8.63835444 2.05128205,16.3991245 C2.05128205,19.687615 3.17689645,22.7160166 5.0603569,25.1146803 L16.025641,39 L26.9909252,25.1146803 C28.8743856,22.7160166 30,19.687615 30,16.3991245 C30,8.63835444 23.7310801,2.32450331 16.025641,2.32450331 Z" id="Shape" stroke="url(#linearGradient-2)" stroke-width="1" fill="url(#linearGradient-1)"></path>
                    <g id="logo&gt;crafts" transform="translate(6.153846, 6.198675)" fill="#FFFFFF">
                        <path d="M12.6668298,7.57086112 L11.8606172,7.57086112 L11.8606172,5.56281868 C11.8606172,5.35299713 11.7001488,5.18298241 11.5022687,5.18298241 L11.1161123,5.18298241 L10.3434412,2.43311974 C10.2982176,2.27214513 10.1585334,2.16176471 10,2.16176471 C9.84153828,2.16176471 9.70178235,2.27214513 9.65655877,2.43311974 L8.88388766,5.18298241 L8.49773128,5.18298241 C8.29985122,5.18298241 8.13938275,5.35299713 8.13938275,5.56281868 L8.13938275,7.57093709 L7.33317022,7.57093709 C6.45213452,7.57093709 5.73529412,8.3306856 5.73529412,9.26462702 L5.73529412,16.6813101 C5.73529412,17.6152515 6.45206285,18.375 7.33317022,18.375 L12.6668298,18.375 C13.5478655,18.375 14.2647059,17.6152515 14.2647059,16.6813101 L14.2647059,9.26462702 C14.2647059,8.33060963 13.5479371,7.57086112 12.6668298,7.57086112 Z M12.9411765,11.1176471 L12.9411765,14.9779412 L6.91176471,14.9779412 L6.91176471,11.1176471 L12.9411765,11.1176471 L12.9411765,11.1176471 Z" id="Shape"></path>
                    </g>
                </g>
            </g>
        </g>
    </g>
</svg>