<?xml version="1.0" encoding="UTF-8"?>
<svg width="30px" height="39px" viewBox="0 0 30 39" version="1.1" xmlns="http://www.w3.org/2000/svg" xmlns:xlink="http://www.w3.org/1999/xlink">
    <!-- Generator: Sketch 46.2 (44496) - http://www.bohemiancoding.com/sketch -->
    <title>logo</title>
    <desc>Created with Sketch.</desc>
    <defs>
        <linearGradient x1="0%" y1="0%" x2="101.999998%" y2="100.999999%" id="linearGradient-1">
            <stop stop-color="#51C7FF" offset="0%"></stop>
            <stop stop-color="#8407C3" offset="100%"></stop>
        </linearGradient>
        <linearGradient x1="50%" y1="0%" x2="50%" y2="100%" id="linearGradient-2">
            <stop stop-color="#C8C8C8" offset="0%"></stop>
            <stop stop-color="#979797" offset="100%"></stop>
        </linearGradient>
    </defs>
    <g id="Not-Logged" stroke="none" stroke-width="1" fill="none" fill-rule="evenodd">
        <g id="Index" transform="translate(-797.000000, -425.000000)" fill-rule="nonzero">
            <g id="map" transform="translate(414.000000, 101.000000)">
                <g id="logo" transform="translate(382.000000, 323.000000)">
                    <path d="M16.025641,2.32450331 C8.32020196,2.32450331 2.05128205,8.63835444 2.05128205,16.3991245 C2.05128205,19.687615 3.17689645,22.7160166 5.0603569,25.1146803 L16.025641,39 L26.9909252,25.1146803 C28.8743856,22.7160166 30,19.687615 30,16.3991245 C30,8.63835444 23.7310801,2.32450331 16.025641,2.32450331 Z" id="Shape" stroke="url(#linearGradient-2)" stroke-width="1" fill="url(#linearGradient-1)"></path>
                    <g id="logo&gt;prayer" transform="translate(6.153846, 6.198675)" fill="#FFFFFF">
                        <path d="M9.30411995,8.53175816 C8.87365513,8.36362224 8.39886582,8.60717452 8.24444324,9.07554664 L7.74865224,10.5782785 L7.69895849,9.65223855 L9.26653503,4.91742888 C9.37173925,4.60137957 9.24550537,4.24248283 8.9626956,4.08727108 C8.65703845,3.91937844 8.28432129,4.05272552 8.12992668,4.3851049 L5.93182391,9.11644785 C5.88478682,9.21865527 5.85707353,9.33734482 5.85707353,9.45953149 L5.86870696,13.0198529 L3.84874106,14.1731151 C3.28843487,14.4930569 3.07274104,15.2460649 3.36676476,15.8550825 C3.66120796,16.4643433 4.35345289,16.6988943 4.91373111,16.3789525 L8.64716681,14.2471022 L8.7326837,14.1984161 C8.98283038,14.0533916 9.17120243,13.7884612 9.22265798,13.4607041 L9.84107539,9.53154196 C9.90777185,9.10860212 9.6884985,8.68161777 9.30411995,8.53175816 Z" id="Shape"></path>
                        <path d="M16.2983244,14.1731126 L14.2783533,13.0198492 L14.2899867,9.45952395 C14.2899867,9.33733714 14.2622734,9.21864747 14.2152362,9.11643994 L12.0171557,4.38509194 C11.8627606,4.0527122 11.4900146,3.91939539 11.1843846,4.0872578 C10.9015741,4.24246971 10.7753678,4.60133643 10.8805444,4.91741648 L12.448125,9.65223121 L12.398459,10.5782722 L11.9026668,9.07553868 C11.7482438,8.60719647 11.2734532,8.36361352 10.8429873,8.53174962 C10.4585798,8.6816398 10.2393059,9.10862461 10.3059745,9.53153449 L10.9244215,13.4607009 C10.9758772,13.7884583 11.1642497,14.0534194 11.4143971,14.1984136 L11.4999142,14.2470998 L15.2333596,16.3789524 C15.7936393,16.6988945 16.485886,16.4643433 16.78033,15.8550818 C17.0742985,15.246094 16.8586041,14.4930851 16.2983244,14.1731126 Z" id="Shape"></path>
                    </g>
                </g>
            </g>
        </g>
    </g>
</svg>