<?xml version="1.0" encoding="UTF-8"?>
<svg width="30px" height="39px" viewBox="0 0 30 39" version="1.1" xmlns="http://www.w3.org/2000/svg" xmlns:xlink="http://www.w3.org/1999/xlink">
    <!-- Generator: Sketch 46.2 (44496) - http://www.bohemiancoding.com/sketch -->
    <title>logo</title>
    <desc>Created with Sketch.</desc>
    <defs>
        <linearGradient x1="0%" y1="0%" x2="101.999998%" y2="100.999999%" id="linearGradient-1">
            <stop stop-color="#51C7FF" offset="0%"></stop>
            <stop stop-color="#8407C3" offset="100%"></stop>
        </linearGradient>
        <linearGradient x1="50%" y1="0%" x2="50%" y2="100%" id="linearGradient-2">
            <stop stop-color="#C8C8C8" offset="0%"></stop>
            <stop stop-color="#979797" offset="100%"></stop>
        </linearGradient>
    </defs>
    <g id="Not-Logged" stroke="none" stroke-width="1" fill="none" fill-rule="evenodd">
        <g id="Index" transform="translate(-797.000000, -425.000000)" fill-rule="nonzero">
            <g id="map" transform="translate(414.000000, 101.000000)">
                <g id="logo" transform="translate(382.000000, 323.000000)">
                    <path d="M16.025641,2.32450331 C8.32020196,2.32450331 2.05128205,8.63835444 2.05128205,16.3991245 C2.05128205,19.687615 3.17689645,22.7160166 5.0603569,25.1146803 L16.025641,39 L26.9909252,25.1146803 C28.8743856,22.7160166 30,19.687615 30,16.3991245 C30,8.63835444 23.7310801,2.32450331 16.025641,2.32450331 Z" id="Shape" stroke="url(#linearGradient-2)" stroke-width="1" fill="url(#linearGradient-1)"></path>
                    <g id="logo&gt;theater" transform="translate(6.153846, 6.198675)" fill="#FFFFFF">
                        <path d="M13.0870926,3.86029412 C8.79461598,3.86029412 8.82353199,4.73223999 8.82353199,4.73223999 L8.82353199,7.15549523 C9.62078539,7.08223895 10.1685188,6.95728988 10.522399,6.84614424 C11.0491615,6.6806257 11.2598597,6.51400358 11.2970277,6.48192987 C11.3761205,6.38243307 11.4873687,6.33180881 11.6053174,6.33180881 C11.6544371,6.33180881 11.7044775,6.34044471 11.7540405,6.35806686 C11.9250985,6.41890355 12.0293053,6.59684168 12.0293053,6.78264496 L12.0293053,10.2859661 C12.3621975,10.1162259 12.7202377,10.0299194 13.1062563,10.0286582 C13.2087581,10.0336856 13.3190345,10.0406048 13.4725145,10.0611698 C13.6097462,10.0883738 13.7333553,10.1138436 13.8611246,10.1598959 C14.1123324,10.2499685 14.3568228,10.3777729 14.5754661,10.5600903 C14.9686625,10.8795311 15.3101647,11.3739496 15.3789255,11.9573548 C15.3902464,12.0533832 15.3180245,12.1091575 15.22698,12.0845285 C14.7901538,11.9663936 14.456017,11.9430959 14.1280862,11.9174684 L13.5999427,11.8935577 L13.0678437,11.8852371 C12.7638164,11.8885303 12.3990756,11.8904046 12.0453318,11.9141402 C12.0400124,11.9144555 12.0344713,11.9150686 12.0292882,11.9154014 C12.0277538,12.8824298 11.8165952,13.7920899 11.4469783,14.5843507 C11.9521732,14.8375946 12.5061808,14.9779412 13.0878599,14.9779412 C15.4433898,14.9779412 17.3529379,12.6838917 17.3529379,9.85523948 L17.3529379,4.73222247 C17.3529209,4.73222247 17.3792624,3.86029412 13.0870926,3.86029412 Z M15.9117576,8.61648672 C15.3992144,9.02202379 14.6609865,8.98350381 14.1912888,8.5009443 C13.7216252,8.01838479 13.6841333,7.25993184 14.0788301,6.73331696 C14.13627,6.65666238 14.2452677,6.65729299 14.3118291,6.72571457 L15.919106,8.37708128 C15.9857526,8.44548534 15.9863493,8.5574718 15.9117576,8.61648672 Z" id="Shape"></path>
                        <path d="M11.6176471,6.79411765 C11.6176471,6.79411765 10.840837,7.68804411 7.35324807,7.68804411 C3.8659319,7.68804411 3.08823529,6.79411765 3.08823529,6.79411765 L3.08823529,12.0450064 C3.08823529,14.9445846 4.99797635,17.2941176 7.35278773,17.2941176 C9.7082129,17.2941176 11.6176471,14.9446205 11.6176471,12.0450064 L11.6176471,6.79411765 L11.6176471,6.79411765 Z M4.43902983,11.5197039 C4.34486329,11.5197039 4.26735449,11.4389765 4.27949402,11.3406708 C4.36281683,10.6650638 4.91134587,10.1432266 5.57559251,10.1432266 C6.23983915,10.1432266 6.78835114,10.6650638 6.871691,11.3406708 C6.88381347,11.4390124 6.80632172,11.5197039 6.71215518,11.5197039 L4.43902983,11.5197039 Z M9.64330397,13.2956344 C9.57374042,13.8918787 9.23161734,14.397161 8.83933348,14.7259599 C8.39104074,15.0910645 7.89057534,15.2691101 7.33258361,15.2707261 C7.22977278,15.2657165 7.12051708,15.2604197 6.96614739,15.2376882 C6.82875938,15.2096419 6.70513063,15.1854739 6.57737581,15.1363121 C6.32629914,15.0438419 6.08195717,14.9128574 5.86378679,14.7278632 C5.47095734,14.4005905 5.12874901,13.8923455 5.05976515,13.294198 C5.04840993,13.1957666 5.12058211,13.1385967 5.21164557,13.1638779 C5.64865128,13.2852562 5.98354521,13.3100885 6.31161918,13.3347772 L6.83962016,13.3592863 L7.37097996,13.3681562 C7.67484309,13.3665402 8.03974482,13.3647627 8.39438252,13.3384939 C8.72245649,13.313518 9.05677072,13.2885241 9.4917816,13.1660325 C9.58277686,13.1404282 9.65479559,13.197239 9.64330397,13.2956344 Z M10.2668355,11.5197039 L7.99372717,11.5197039 C7.89957768,11.5197039 7.82206888,11.4389765 7.8342084,11.3406708 C7.91754826,10.6650638 8.46606026,10.1432266 9.1303069,10.1432266 C9.79455354,10.1432266 10.3430655,10.6650638 10.4264224,11.3406708 C10.4385279,11.4389765 10.3610191,11.5197039 10.2668355,11.5197039 Z" id="Shape"></path>
                    </g>
                </g>
            </g>
        </g>
    </g>
</svg>