<?xml version="1.0" encoding="UTF-8"?>
<svg width="30px" height="39px" viewBox="0 0 30 39" version="1.1" xmlns="http://www.w3.org/2000/svg" xmlns:xlink="http://www.w3.org/1999/xlink">
    <!-- Generator: Sketch 46.2 (44496) - http://www.bohemiancoding.com/sketch -->
    <title>logo</title>
    <desc>Created with Sketch.</desc>
    <defs>
        <linearGradient x1="0%" y1="0%" x2="101.999998%" y2="100.999999%" id="linearGradient-1">
            <stop stop-color="#51C7FF" offset="0%"></stop>
            <stop stop-color="#8407C3" offset="100%"></stop>
        </linearGradient>
        <linearGradient x1="50%" y1="0%" x2="50%" y2="100%" id="linearGradient-2">
            <stop stop-color="#C8C8C8" offset="0%"></stop>
            <stop stop-color="#979797" offset="100%"></stop>
        </linearGradient>
    </defs>
    <g id="Not-Logged" stroke="none" stroke-width="1" fill="none" fill-rule="evenodd">
        <g id="Index" transform="translate(-797.000000, -425.000000)" fill-rule="nonzero">
            <g id="map" transform="translate(414.000000, 101.000000)">
                <g id="logo" transform="translate(382.000000, 323.000000)">
                    <path d="M16.025641,2.32450331 C8.32020196,2.32450331 2.05128205,8.63835444 2.05128205,16.3991245 C2.05128205,19.687615 3.17689645,22.7160166 5.0603569,25.1146803 L16.025641,39 L26.9909252,25.1146803 C28.8743856,22.7160166 30,19.687615 30,16.3991245 C30,8.63835444 23.7310801,2.32450331 16.025641,2.32450331 Z" id="Shape" stroke="url(#linearGradient-2)" stroke-width="1" fill="url(#linearGradient-1)"></path>
                    <g id="logo&gt;music" transform="translate(6.153846, 6.198675)" fill="#FFFFFF">
                        <path d="M15.9392157,3.15793883 C15.8819146,3.10487663 15.8063091,3.08073193 15.7299077,3.09027751 L7.50614764,4.21637526 C7.37403691,4.23462416 7.27508651,4.35338241 7.27508651,4.49460086 L7.27508651,6.18388786 L7.27508651,7.36641684 L7.27508651,14.493035 C6.79068051,13.8767835 6.02109573,13.4758691 5.15282584,13.4758691 C3.69005767,13.4758691 2.5,14.6092664 2.5,16.0026404 C2.5,17.3960145 3.69005767,18.5294118 5.15282584,18.5294118 C6.615594,18.5294118 7.80565167,17.3960145 7.80565167,16.0026404 C7.80565167,15.9375059 7.8006113,15.8734944 7.79530565,15.8097636 C7.79875433,15.7915147 7.80565167,15.7749503 7.80565167,15.7558591 L7.80565167,7.61319817 L15.4988466,6.55953453 L15.4988466,11.6852305 C15.0144406,11.0692598 14.2448558,10.6683454 13.3765859,10.6683454 C11.9138178,10.6683454 10.7237601,11.8017428 10.7237601,13.1951168 C10.7237601,14.5884908 11.9138178,15.7218881 13.3765859,15.7218881 C14.82609,15.7218881 16.0063322,14.6084242 16.0275548,13.2324568 C16.0275548,13.228807 16.0294118,13.2257188 16.0294118,13.222069 L16.0294118,6.24003833 L16.0294118,5.05779011 L16.0294118,3.36878386 C16.0294118,3.28792718 15.9965167,3.21100103 15.9392157,3.15793883 Z" id="Shape"></path>
                    </g>
                </g>
            </g>
        </g>
    </g>
</svg>