<?xml version="1.0" encoding="UTF-8"?>
<svg width="30px" height="39px" viewBox="0 0 30 39" version="1.1" xmlns="http://www.w3.org/2000/svg" xmlns:xlink="http://www.w3.org/1999/xlink">
    <!-- Generator: Sketch 46.2 (44496) - http://www.bohemiancoding.com/sketch -->
    <title>logo</title>
    <desc>Created with Sketch.</desc>
    <defs>
        <linearGradient x1="0%" y1="0%" x2="101.999998%" y2="100.999999%" id="linearGradient-1">
            <stop stop-color="#51C7FF" offset="0%"></stop>
            <stop stop-color="#8407C3" offset="100%"></stop>
        </linearGradient>
        <linearGradient x1="50%" y1="0%" x2="50%" y2="100%" id="linearGradient-2">
            <stop stop-color="#C8C8C8" offset="0%"></stop>
            <stop stop-color="#979797" offset="100%"></stop>
        </linearGradient>
    </defs>
    <g id="Not-Logged" stroke="none" stroke-width="1" fill="none" fill-rule="evenodd">
        <g id="Index" transform="translate(-797.000000, -425.000000)" fill-rule="nonzero">
            <g id="map" transform="translate(414.000000, 101.000000)">
                <g id="logo" transform="translate(382.000000, 323.000000)">
                    <path d="M16.025641,2.32450331 C8.32020196,2.32450331 2.05128205,8.63835444 2.05128205,16.3991245 C2.05128205,19.687615 3.17689645,22.7160166 5.0603569,25.1146803 L16.025641,39 L26.9909252,25.1146803 C28.8743856,22.7160166 30,19.687615 30,16.3991245 C30,8.63835444 23.7310801,2.32450331 16.025641,2.32450331 Z" id="Shape" stroke="url(#linearGradient-2)" stroke-width="1" fill="url(#linearGradient-1)"></path>
                    <g id="logo&gt;shopping" transform="translate(6.153846, 6.198675)" fill="#FFFFFF">
                        <path d="M15.6373599,6.54331434 C15.6327195,6.47794991 15.5808424,6.42738971 15.5187326,6.42738971 L13.3770157,6.42738971 L13.3770157,5.80009191 C13.3770157,3.79386811 11.8290304,2.16176471 9.92647193,2.16176471 C8.02391347,2.16176471 6.47592812,3.79386811 6.47592812,5.80009191 L6.47592812,6.42738971 L4.33421128,6.42738971 C4.27210149,6.42738971 4.22022435,6.47794991 4.21558396,6.54331434 L3.38269408,18.0855938 C3.38019541,18.120346 3.39149891,18.154722 3.41410592,18.1803157 C3.43659395,18.2060349 3.46824377,18.2205882 3.50132139,18.2205882 L16.3516225,18.2205882 C16.3847001,18.2205882 16.4163499,18.2060349 16.4388379,18.1804412 C16.461326,18.1548474 16.4727485,18.1204715 16.4702498,18.0857192 L15.6373599,6.54331434 Z M7.5,5.70729638 C7.5,4.26319598 8.62142857,3.08823529 10,3.08823529 C11.3785714,3.08823529 12.5,4.26319598 12.5,5.70729638 L12.5,6.33088235 L7.5,6.33088235 L7.5,5.70729638 Z M6.91176471,10.0367647 C6.26294118,10.0367647 5.73529412,9.45846787 5.73529412,8.74765005 C5.73529412,8.23316439 5.97058824,7.76959876 6.44117647,7.56617647 L6.44117647,8.74765005 C6.44117647,9.03202874 6.65235294,9.26329591 6.91176471,9.26329591 C7.17117647,9.26329591 7.38235294,9.03202874 7.38235294,8.74765005 L7.38235294,7.56694994 C7.85294118,7.77037223 8.08823529,8.23741847 8.08823529,8.74765005 C8.08823529,9.45846787 7.56058824,10.0367647 6.91176471,10.0367647 Z M12.7941176,10.0367647 C12.1452941,10.0367647 11.6176471,9.45846787 11.6176471,8.74765005 C11.6176471,8.23316439 11.8529412,7.76959876 12.3235294,7.56617647 L12.3235294,8.74765005 C12.3235294,9.03202874 12.5347059,9.26329591 12.7941176,9.26329591 C13.0535294,9.26329591 13.2647059,9.03202874 13.2647059,8.74765005 L13.2647059,7.56694994 C13.7352941,7.77037223 13.9705882,8.23741847 13.9705882,8.74765005 C13.9705882,9.45846787 13.4429412,10.0367647 12.7941176,10.0367647 Z" id="Shape"></path>
                    </g>
                </g>
            </g>
        </g>
    </g>
</svg>