<?xml version="1.0" encoding="UTF-8"?>
<svg width="30px" height="39px" viewBox="0 0 30 39" version="1.1" xmlns="http://www.w3.org/2000/svg" xmlns:xlink="http://www.w3.org/1999/xlink">
    <!-- Generator: Sketch 46.2 (44496) - http://www.bohemiancoding.com/sketch -->
    <title>logo</title>
    <desc>Created with Sketch.</desc>
    <defs>
        <linearGradient x1="0%" y1="0%" x2="101.999998%" y2="100.999999%" id="linearGradient-1">
            <stop stop-color="#51C7FF" offset="0%"></stop>
            <stop stop-color="#8407C3" offset="100%"></stop>
        </linearGradient>
        <linearGradient x1="50%" y1="0%" x2="50%" y2="100%" id="linearGradient-2">
            <stop stop-color="#C8C8C8" offset="0%"></stop>
            <stop stop-color="#979797" offset="100%"></stop>
        </linearGradient>
    </defs>
    <g id="Not-Logged" stroke="none" stroke-width="1" fill="none" fill-rule="evenodd">
        <g id="Index" transform="translate(-797.000000, -425.000000)" fill-rule="nonzero">
            <g id="map" transform="translate(414.000000, 101.000000)">
                <g id="logo" transform="translate(382.000000, 323.000000)">
                    <path d="M16.025641,2.32450331 C8.32020196,2.32450331 2.05128205,8.63835444 2.05128205,16.3991245 C2.05128205,19.687615 3.17689645,22.7160166 5.0603569,25.1146803 L16.025641,39 L26.9909252,25.1146803 C28.8743856,22.7160166 30,19.687615 30,16.3991245 C30,8.63835444 23.7310801,2.32450331 16.025641,2.32450331 Z" id="Shape" stroke="url(#linearGradient-2)" stroke-width="1" fill="url(#linearGradient-1)"></path>
                    <g id="logo&gt;causes" transform="translate(6.153846, 6.198675)" fill="#FFFFFF">
                        <path d="M14.1257006,5.74922542 C13.7029795,4.28001364 13.2183512,2.93382353 13.2183512,2.93382353 C13.2183512,2.93382353 13.3771842,3.5758428 12.5098557,5.04505457 C11.3029747,7.08580446 11.376138,6.89934976 4.55882353,16.8000302 L6.31411628,19.3014706 L13.8630632,7.83867138 C13.8630632,7.83867138 14.5515482,7.21715571 14.1257006,5.74922542 Z" id="Shape"></path>
                        <polygon id="Shape" points="12.5939976 10.9632353 10.8823529 13.4508978 13.9912585 19.4558824 15.7352941 16.9185295"></polygon>
                        <path d="M8.67484742,9.72794118 L10.1470588,7.20934667 L8.93077719,4.48277779 C8.93077719,4.48277779 8.43552848,3.63788187 8.50074135,3.08823529 L7.59821978,5.93178977 C7.59821978,5.93178977 7.30168577,6.68136409 7.7391042,7.50150116 C8.17406177,8.32163822 8.67484742,9.72794118 8.67484742,9.72794118 Z" id="Shape"></path>
                        <path d="M12.5923991,4.32352941 C12.5923991,4.32352941 13.3636595,3.25086643 12.9823692,2.50304968 C12.9823692,2.50304968 11.2848524,1.1744103 8.95371163,2.31594312 C8.95371163,2.31594312 8.21283048,2.74744619 9.15334656,4.32352941 C9.15334656,4.32352941 11.4299287,3.73234584 12.5923991,4.32352941 Z" id="Shape"></path>
                    </g>
                </g>
            </g>
        </g>
    </g>
</svg>