<?xml version="1.0" encoding="UTF-8"?>
<svg width="30px" height="39px" viewBox="0 0 30 39" version="1.1" xmlns="http://www.w3.org/2000/svg" xmlns:xlink="http://www.w3.org/1999/xlink">
    <!-- Generator: Sketch 46.2 (44496) - http://www.bohemiancoding.com/sketch -->
    <title>logo</title>
    <desc>Created with Sketch.</desc>
    <defs>
        <linearGradient x1="0%" y1="0%" x2="101.999998%" y2="100.999999%" id="linearGradient-1">
            <stop stop-color="#51C7FF" offset="0%"></stop>
            <stop stop-color="#8407C3" offset="100%"></stop>
        </linearGradient>
        <linearGradient x1="50%" y1="0%" x2="50%" y2="100%" id="linearGradient-2">
            <stop stop-color="#C8C8C8" offset="0%"></stop>
            <stop stop-color="#979797" offset="100%"></stop>
        </linearGradient>
    </defs>
    <g id="Not-Logged" stroke="none" stroke-width="1" fill="none" fill-rule="evenodd">
        <g id="Index" transform="translate(-797.000000, -425.000000)" fill-rule="nonzero">
            <g id="map" transform="translate(414.000000, 101.000000)">
                <g id="logo" transform="translate(382.000000, 323.000000)">
                    <path d="M16.025641,2.32450331 C8.32020196,2.32450331 2.05128205,8.63835444 2.05128205,16.3991245 C2.05128205,19.687615 3.17689645,22.7160166 5.0603569,25.1146803 L16.025641,39 L26.9909252,25.1146803 C28.8743856,22.7160166 30,19.687615 30,16.3991245 C30,8.63835444 23.7310801,2.32450331 16.025641,2.32450331 Z" id="Shape" stroke="url(#linearGradient-2)" stroke-width="1" fill="url(#linearGradient-1)"></path>
                    <g id="logo&gt;comedy" transform="translate(6.153846, 6.198675)" fill="#FFFFFF">
                        <path d="M16.4878239,4.3054979 C15.8130398,3.59735484 14.9285787,3.24264706 14.0438146,3.24264706 C13.1593536,3.24264706 12.2748925,3.59703671 11.6004114,4.3054979 C10.2508432,5.72242027 10.2508432,8.02022679 11.6004114,9.43714916 C12.2751955,10.1456103 13.1596566,10.5 14.0438146,10.5 C14.9279727,10.5 15.8130398,10.1456103 16.4878239,9.43714916 C17.837392,8.02054492 17.837392,5.72273839 16.4878239,4.3054979 Z" id="Shape"></path>
                        <path d="M9.85452923,8.02941176 L3.42824557,15.605971 C3.1594259,15.9229936 3.17316557,16.4225159 3.45901049,16.7229192 L3.7971259,17.0781978 L3.5811741,17.3052249 C3.43869967,17.4547994 3.43869967,17.699073 3.5811741,17.8480204 L3.61343246,17.8818863 C3.75590688,18.0317744 3.98858525,18.0317744 4.13105967,17.8818863 L4.34701148,17.6548592 L4.66212788,17.9856791 C4.9479728,18.2857688 5.424381,18.3001931 5.7263551,18.0182907 L12.9411765,11.2736416 C12.2037145,11.0751497 11.5256915,10.6772251 10.9731178,10.0971144 C10.4094925,9.50540151 10.0391187,8.78731854 9.85452923,8.02941176 Z M9.51372562,12.5037898 L7.97697315,14.1174383 C7.74698298,14.3592033 7.3742197,14.3592033 7.14452822,14.1174383 C6.91483675,13.8756732 6.91453806,13.4840201 7.14452822,13.2435094 L8.6812807,11.6298609 C8.91127086,11.3880959 9.28403414,11.3880959 9.51372562,11.6298609 C9.7434171,11.8713124 9.74371579,12.2626519 9.51372562,12.5037898 Z" id="Shape"></path>
                    </g>
                </g>
            </g>
        </g>
    </g>
</svg>