<?xml version="1.0" encoding="UTF-8"?>
<svg width="30px" height="39px" viewBox="0 0 30 39" version="1.1" xmlns="http://www.w3.org/2000/svg" xmlns:xlink="http://www.w3.org/1999/xlink">
    <!-- Generator: Sketch 46.2 (44496) - http://www.bohemiancoding.com/sketch -->
    <title>logo</title>
    <desc>Created with Sketch.</desc>
    <defs>
        <linearGradient x1="0%" y1="0%" x2="101.999998%" y2="100.999999%" id="linearGradient-1">
            <stop stop-color="#51C7FF" offset="0%"></stop>
            <stop stop-color="#8407C3" offset="100%"></stop>
        </linearGradient>
        <linearGradient x1="50%" y1="0%" x2="50%" y2="100%" id="linearGradient-2">
            <stop stop-color="#C8C8C8" offset="0%"></stop>
            <stop stop-color="#979797" offset="100%"></stop>
        </linearGradient>
    </defs>
    <g id="Not-Logged" stroke="none" stroke-width="1" fill="none" fill-rule="evenodd">
        <g id="Index" transform="translate(-797.000000, -425.000000)" fill-rule="nonzero">
            <g id="map" transform="translate(414.000000, 101.000000)">
                <g id="logo" transform="translate(382.000000, 323.000000)">
                    <path d="M16.025641,2.32450331 C8.32020196,2.32450331 2.05128205,8.63835444 2.05128205,16.3991245 C2.05128205,19.687615 3.17689645,22.7160166 5.0603569,25.1146803 L16.025641,39 L26.9909252,25.1146803 C28.8743856,22.7160166 30,19.687615 30,16.3991245 C30,8.63835444 23.7310801,2.32450331 16.025641,2.32450331 Z" id="Shape" stroke="url(#linearGradient-2)" stroke-width="1" fill="url(#linearGradient-1)"></path>
                    <g id="logo&gt;health" transform="translate(6.153846, 6.198675)" fill="#FFFFFF">
                        <path d="M6.61035808,11.5403532 L7.87317364,8.91728209 L8.79394733,11.7901544 L10.202803,7.03345642 L11.3165124,12.8161765 L12.298155,11.5416164 L15.2923658,11.5409848 C16.0482256,10.4652498 16.4705882,9.42201642 16.4705882,8.28827875 C16.4705882,6.13936163 14.8700283,4.47794118 12.8032762,4.47794118 C11.6700897,4.47794118 10.5363252,5.03238837 9.80298341,5.93222028 C9.06964162,5.03236206 7.935852,4.47794118 6.80269066,4.47794118 C4.73596363,4.47794118 3.13537858,6.13933531 3.13537858,8.28762082 C3.13537858,9.17726804 3.39888402,10.0127548 3.87724,10.850768 L2.5,10.850768 L2.5,11.5403005 L4.31297269,11.5403005 L5.82041981,11.5403005 L6.61035808,11.5403005 L6.61035808,11.5403532 Z" id="Shape"></path>
                        <path d="M17.3529412,12.3814393 L12.6162843,12.3814393 L11.2629428,14.184806 L10.1794039,9.88235294 L8.89490888,13.46374 L7.87960179,10.5781 L7.07393343,12.3814668 L4.85294118,12.3814668 C5.86514914,13.6523384 7.26933157,14.9958642 8.9600672,16.5886437 L9.91024157,17.6029412 L10.8604159,16.5886437 C12.2367063,15.2924532 13.4101709,14.1635051 14.3491782,13.1025603 L17.3529412,13.1025603 L17.3529412,12.3814393 Z" id="Shape"></path>
                    </g>
                </g>
            </g>
        </g>
    </g>
</svg>