<?xml version="1.0" encoding="UTF-8"?>
<svg width="30px" height="39px" viewBox="0 0 30 39" version="1.1" xmlns="http://www.w3.org/2000/svg" xmlns:xlink="http://www.w3.org/1999/xlink">
    <!-- Generator: Sketch 46.2 (44496) - http://www.bohemiancoding.com/sketch -->
    <title>logo</title>
    <desc>Created with Sketch.</desc>
    <defs>
        <linearGradient x1="0%" y1="0%" x2="101.999998%" y2="100.999999%" id="linearGradient-1">
            <stop stop-color="#51C7FF" offset="0%"></stop>
            <stop stop-color="#8407C3" offset="100%"></stop>
        </linearGradient>
        <linearGradient x1="50%" y1="0%" x2="50%" y2="100%" id="linearGradient-2">
            <stop stop-color="#C8C8C8" offset="0%"></stop>
            <stop stop-color="#979797" offset="100%"></stop>
        </linearGradient>
    </defs>
    <g id="Not-Logged" stroke="none" stroke-width="1" fill="none" fill-rule="evenodd">
        <g id="Index" transform="translate(-797.000000, -425.000000)" fill-rule="nonzero">
            <g id="map" transform="translate(414.000000, 101.000000)">
                <g id="logo" transform="translate(382.000000, 323.000000)">
                    <path d="M16.025641,2.32450331 C8.32020196,2.32450331 2.05128205,8.63835444 2.05128205,16.3991245 C2.05128205,19.687615 3.17689645,22.7160166 5.0603569,25.1146803 L16.025641,39 L26.9909252,25.1146803 C28.8743856,22.7160166 30,19.687615 30,16.3991245 C30,8.63835444 23.7310801,2.32450331 16.025641,2.32450331 Z" id="Shape" stroke="url(#linearGradient-2)" stroke-width="1" fill="url(#linearGradient-1)"></path>
                    <g id="logo&gt;dance" transform="translate(6.153846, 6.198675)" fill="#FFFFFF">
                        <path d="M15.8823529,11.2959908 C15.8823529,7.8552645 13.4750326,5.01622216 10.4061979,4.70839817 L10.4061979,1.84236832 C10.4061979,1.50708653 10.1584597,1.23529412 9.85292469,1.23529412 C9.54735673,1.23529412 9.2996515,1.50708653 9.2996515,1.84236832 L9.2996515,4.70839817 C6.23042112,5.01625834 3.82352941,7.85584332 3.82352941,11.2959908 C3.82352941,11.2980528 3.82359535,11.3001149 3.82359535,11.3022131 C3.82359535,11.3027557 3.82352941,11.303226 3.82352941,11.3038049 C3.82352941,11.3047093 3.82362832,11.3055413 3.82362832,11.3064095 C3.82880465,14.9557283 6.53800026,17.9117647 9.85292469,17.9117647 C13.1623761,17.9117647 15.8770777,14.9614441 15.882254,11.3064095 C15.882254,11.3055051 15.8823529,11.3046731 15.8823529,11.3038049 C15.8823529,11.3032622 15.882287,11.3027557 15.882287,11.3022131 C15.882287,11.3001149 15.8823529,11.2980528 15.8823529,11.2959908 Z M5.36452434,9.07780581 L6.62210729,9.07780581 C6.52979068,9.59613959 6.46985083,10.1391818 6.44482643,10.6966583 L4.96050731,10.6966583 C5.01823816,10.1257965 5.15704277,9.58130731 5.36452434,9.07780581 Z M5.37108541,13.5296954 C5.16192236,13.0264471 5.0214033,12.481994 4.96215582,11.9108429 L6.44545287,11.9108429 C6.4711037,12.4685003 6.53203266,13.0114701 6.62504163,13.5296954 L5.37108541,13.5296954 Z M6.06636132,14.7438076 L6.91738854,14.7438076 C7.0520389,15.1805277 7.21309841,15.593697 7.41395296,15.98668 C6.89955165,15.6634087 6.44314495,15.2411591 6.06636132,14.7438076 Z M6.91264083,7.8636574 L6.05439314,7.8636574 C6.43348468,7.35950472 6.89417751,6.93193723 7.41398593,6.60522921 C7.2108894,7.00251715 7.0482803,7.42122145 6.91264083,7.8636574 Z M9.29968447,16.5217272 C8.73955347,16.1682126 8.340449,15.3995389 8.09683208,14.7438076 L9.29968447,14.7438076 L9.29968447,16.5217272 Z M9.29968447,13.5296954 L7.75466718,13.5296954 C7.65031644,13.0194289 7.58226592,12.4752291 7.55368074,11.9108429 L9.29968447,11.9108429 L9.29968447,13.5296954 L9.29968447,13.5296954 Z M9.29968447,10.6966945 L7.55275757,10.6966945 C7.58061741,10.1325253 7.64787665,9.58828934 7.75137015,9.07784198 L9.29968447,9.07784198 L9.29968447,10.6966945 Z M9.29968447,7.8636574 L8.09102932,7.8636574 C8.3342506,7.20416376 8.73533328,6.42640985 9.29968447,6.07021817 L9.29968447,7.8636574 Z M13.6514892,7.8636574 L12.7932086,7.8636574 C12.6577339,7.42161939 12.494927,7.00248098 12.2918634,6.60522921 C12.8117378,6.93193723 13.2724306,7.35950472 13.6514892,7.8636574 Z M10.4062309,6.07021817 C10.9704831,6.4263375 11.3716318,7.20401905 11.614886,7.8636574 L10.4062309,7.8636574 L10.4062309,6.07021817 Z M10.4062309,16.5217272 L10.4062309,14.7438076 L11.6090832,14.7438076 C11.365829,15.3986707 10.9667245,16.1680317 10.4062309,16.5217272 Z M11.9512152,13.5296954 L10.4062309,13.5296954 L10.4062309,11.9108429 L12.1522346,11.9108429 C12.1236494,12.4751567 12.0555989,13.0194289 11.9512152,13.5296954 Z M10.4062309,10.6966945 L10.4062309,9.07784198 L11.9545452,9.07784198 C12.0580387,9.58836169 12.1253309,10.1325615 12.1531578,10.6966945 L10.4062309,10.6966945 Z M12.2918964,15.9867523 C12.4934433,15.5924308 12.654305,15.1789721 12.7885268,14.74388 L13.639554,14.74388 C13.2627704,15.2411591 12.8063637,15.6634087 12.2918964,15.9867523 Z M14.3348299,13.5296954 L13.0809067,13.5296954 C13.1739156,13.0114701 13.2348776,12.4685003 13.2604954,11.9108429 L14.7437925,11.9108429 C14.6844791,12.4819579 14.543993,13.0264109 14.3348299,13.5296954 Z M13.2610229,10.6966945 C13.2360645,10.1392541 13.1760917,9.59617576 13.0837421,9.07784198 L14.341358,9.07784198 C14.5488396,9.58134349 14.6876442,10.1257965 14.7453421,10.6966945 L13.2610229,10.6966945 Z" id="Shape"></path>
                        <polygon id="Shape" points="16.6919489 17.2660465 16.25 16.3676471 15.8080841 17.2660465 15 17.7573529 15.8080841 18.2486961 16.25 19.1470588 16.6919489 18.2486961 17.5 17.7573529"></polygon>
                        <polygon id="Shape" points="4.55882353 4.47794118 3.67648706 4.77194136 2.79411765 4.47794118 3.05255124 5.48161765 2.79411765 6.48529412 3.67648706 6.1913314 4.55882353 6.48529412 4.30038994 5.48161765"></polygon>
                        <polygon id="Shape" points="3.20561173 15.5222631 2.86764706 14.8235294 2.52971358 15.5222631 1.91176471 15.9044294 2.52971358 16.2865251 2.86764706 16.9852941 3.20561173 16.2865251 3.82352941 15.9044294"></polygon>
                        <polygon id="Shape" points="17.0291411 5.17663961 16.6911765 4.47794118 16.353243 5.17663961 15.7352941 5.5588059 16.353243 5.94093691 16.6911765 6.63970588 17.0291411 5.94093691 17.6470588 5.5588059"></polygon>
                        <polygon id="Shape" points="6.17647059 17.6029412 5.29413409 17.8968635 4.41176471 17.6029412 4.67021894 18.6066176 4.41176471 19.6102941 5.29413409 19.3163344 6.17647059 19.6102941 5.91804925 18.6066176"></polygon>
                    </g>
                </g>
            </g>
        </g>
    </g>
</svg>