<?xml version="1.0" encoding="UTF-8"?>
<svg width="30px" height="39px" viewBox="0 0 30 39" version="1.1" xmlns="http://www.w3.org/2000/svg" xmlns:xlink="http://www.w3.org/1999/xlink">
    <!-- Generator: Sketch 46.2 (44496) - http://www.bohemiancoding.com/sketch -->
    <title>logo</title>
    <desc>Created with Sketch.</desc>
    <defs>
        <linearGradient x1="0%" y1="0%" x2="101.999998%" y2="100.999999%" id="linearGradient-1">
            <stop stop-color="#51C7FF" offset="0%"></stop>
            <stop stop-color="#8407C3" offset="100%"></stop>
        </linearGradient>
        <linearGradient x1="50%" y1="0%" x2="50%" y2="100%" id="linearGradient-2">
            <stop stop-color="#C8C8C8" offset="0%"></stop>
            <stop stop-color="#979797" offset="100%"></stop>
        </linearGradient>
    </defs>
    <g id="Not-Logged" stroke="none" stroke-width="1" fill="none" fill-rule="evenodd">
        <g id="Index" transform="translate(-797.000000, -425.000000)" fill-rule="nonzero">
            <g id="map" transform="translate(414.000000, 101.000000)">
                <g id="logo" transform="translate(382.000000, 323.000000)">
                    <path d="M16.025641,2.32450331 C8.32020196,2.32450331 2.05128205,8.63835444 2.05128205,16.3991245 C2.05128205,19.687615 3.17689645,22.7160166 5.0603569,25.1146803 L16.025641,39 L26.9909252,25.1146803 C28.8743856,22.7160166 30,19.687615 30,16.3991245 C30,8.63835444 23.7310801,2.32450331 16.025641,2.32450331 Z" id="Shape" stroke="url(#linearGradient-2)" stroke-width="1" fill="url(#linearGradient-1)"></path>
                    <g id="logo&gt;party" transform="translate(6.153846, 6.198675)" fill="#FFFFFF">
                        <polygon id="Shape" points="7.0194284 6.94852941 5.73529412 10.2570625 6.12720397 10.3961277 6.51880774 10.5351929 11.1070606 12.1648804 12.0242716 12.4905147 12.9411765 12.8161765"></polygon>
                        <polygon id="Shape" points="7.94360024 15.3145418 7.35803576 15.1020651 5.2361194 14.3312788 4.85091284 14.1912522 4.46537688 14.0514706 3.08823529 17.6029412 8.52941176 15.527318"></polygon>
                        <polygon id="Shape" points="11.3158765 13.9566464 10.7205132 13.7232876 6.03343949 11.8859346 5.64463418 11.7335747 5.25552499 11.5808824 4.70588235 13.1441506 5.09388652 13.299562 5.48186305 13.4549431 8.49221731 14.6604389 8.49249357 14.6604389 9.08150295 14.8962448 9.67106484 15.1323529 11.9117647 14.1900656"></polygon>
                        <polygon id="Rectangle-path" points="10.245387 9.48825848 13.7870192 5.76954466 14.3976454 6.41070222 10.8560132 10.129416"></polygon>
                        <path d="M12.8730387,9.62581641 C12.215264,9.87751411 11.7827956,10.2762987 11.7647059,10.2931238 L12.2934082,10.9632353 C12.3066359,10.9508969 13.6314474,9.74173254 15.0324745,10.6283862 L15.4411765,9.86558894 C14.6535418,9.36718205 13.765436,9.28429626 12.8730387,9.62581641 Z" id="Shape"></path>
                        <polygon id="Rectangle-path" points="14.4742689 5.22927922 15.0848951 4.58812166 15.6955214 5.22927922 15.0848951 5.87043677"></polygon>
                        <polygon id="Rectangle-path" points="15.8857413 10.8674761 16.2782088 10.059796 17.0474279 10.4718869 16.6549604 11.279567"></polygon>
                        <path d="M10.6044621,4.47794118 L9.8784795,4.9070814 C10.2254992,5.51216141 10.2829238,6.1711442 10.0490114,6.8656914 C9.86468524,7.413104 9.5618577,7.78058402 9.55882353,7.78423458 L9.87853568,8.06056472 L10.1975455,8.33823529 C10.2135873,8.31924098 10.5931682,7.86514577 10.8326995,7.17447729 C11.1577495,6.2373676 11.0788048,5.30490668 10.6044621,4.47794118 Z" id="Shape"></path>
                        <polygon id="Rectangle-path" points="9.33214999 3.44057306 10.2552129 2.94606396 10.6476805 3.75374402 9.72461753 4.24825313"></polygon>
                        <polygon id="Rectangle-path" points="11.7960163 5.16956384 12.3561913 2.88660915 13.1924385 3.11283369 12.6322634 5.39578838"></polygon>
                        <polygon id="Rectangle-path" points="14.7535904 7.44197051 16.9277787 6.85356564 17.1433117 7.73160323 14.9691233 8.32000809"></polygon>
                        <polygon id="Rectangle-path" points="8.33627758 5.63811685 9.16876811 5.39710047 9.39830751 6.27121553 8.56581698 6.5122319"></polygon>
                        <polygon id="Rectangle-path" points="13.7537259 11.980376 14.0291732 10.931438 14.8616637 11.1724543 14.5862164 12.2213924"></polygon>
                    </g>
                </g>
            </g>
        </g>
    </g>
</svg>