<?xml version="1.0" encoding="UTF-8"?>
<svg width="30px" height="39px" viewBox="0 0 30 39" version="1.1" xmlns="http://www.w3.org/2000/svg" xmlns:xlink="http://www.w3.org/1999/xlink">
    <!-- Generator: Sketch 46.2 (44496) - http://www.bohemiancoding.com/sketch -->
    <title>logo</title>
    <desc>Created with Sketch.</desc>
    <defs>
        <linearGradient x1="0%" y1="0%" x2="101.999998%" y2="100.999999%" id="linearGradient-1">
            <stop stop-color="#51C7FF" offset="0%"></stop>
            <stop stop-color="#8407C3" offset="100%"></stop>
        </linearGradient>
        <linearGradient x1="50%" y1="0%" x2="50%" y2="100%" id="linearGradient-2">
            <stop stop-color="#C8C8C8" offset="0%"></stop>
            <stop stop-color="#979797" offset="100%"></stop>
        </linearGradient>
    </defs>
    <g id="Not-Logged" stroke="none" stroke-width="1" fill="none" fill-rule="evenodd">
        <g id="Index" transform="translate(-797.000000, -425.000000)" fill-rule="nonzero">
            <g id="map" transform="translate(414.000000, 101.000000)">
                <g id="logo" transform="translate(382.000000, 323.000000)">
                    <path d="M16.025641,2.32450331 C8.32020196,2.32450331 2.05128205,8.63835444 2.05128205,16.3991245 C2.05128205,19.687615 3.17689645,22.7160166 5.0603569,25.1146803 L16.025641,39 L26.9909252,25.1146803 C28.8743856,22.7160166 30,19.687615 30,16.3991245 C30,8.63835444 23.7310801,2.32450331 16.025641,2.32450331 Z" id="Shape" stroke="url(#linearGradient-2)" stroke-width="1" fill="url(#linearGradient-1)"></path>
                    <g id="logo&gt;games" transform="translate(6.153846, 6.198675)" fill="#FFFFFF">
                        <path d="M15.9443218,7.83847535 C15.2013641,7.0393237 14.3049798,6.63970588 13.2548569,6.63970588 L6.5980583,6.63970588 C5.54809147,6.63970588 4.65142099,7.03929571 3.90859333,7.83847535 C3.16558352,8.637655 2.79411765,9.6020171 2.79411765,10.7315617 C2.79411765,11.8612462 3.16568761,12.8255243 3.90859333,13.624648 C4.65142099,14.4237716 5.54798738,14.8235294 6.5980583,14.8235294 C7.549089,14.8235294 8.38598665,14.4823875 9.10921965,13.8004395 L10.7436955,13.8004395 C11.4668765,14.4823875 12.3037741,14.8235294 13.2548569,14.8235294 C14.3047977,14.8235294 15.2013641,14.4239676 15.9443218,13.624648 C16.6873056,12.8253564 17.0588235,11.8612742 17.0588235,10.7315617 C17.0588235,9.6020171 16.6872796,8.637655 15.9443218,7.83847535 Z M8.97058824,11.2412378 C8.97058824,11.3155865 8.9485938,11.3766606 8.9044504,11.4242649 C8.86033275,11.4720924 8.80400742,11.4959364 8.73531987,11.4959364 L7.32350366,11.4959364 L7.32350366,13.0247132 C7.32350366,13.0990619 7.30150922,13.160136 7.25736582,13.2077682 C7.21324817,13.2555678 7.15694859,13.2794118 7.08823529,13.2794118 L6.14703307,13.2794118 C6.07842279,13.2794118 6.02202019,13.2555678 5.97790254,13.2077682 C5.93383641,13.160136 5.91184197,13.0990619 5.91184197,13.0247132 L5.91184197,11.4959364 L4.49989698,11.4959364 C4.4312867,11.4959364 4.3748841,11.4720924 4.33076646,11.4242649 C4.28670032,11.3766606 4.26470588,11.3155865 4.26470588,11.2412378 L4.26470588,10.2220811 C4.26470588,10.1477883 4.28670032,10.0867141 4.33076646,10.0389425 C4.3748841,9.99114293 4.4312867,9.96732682 4.49989698,9.96732682 L5.91179046,9.96732682 L5.91179046,8.43857784 C5.91179046,8.36428496 5.9337849,8.30321085 5.97785104,8.25543919 C6.02194293,8.20761175 6.07837128,8.18382353 6.14698156,8.18382353 L7.08818378,8.18382353 C7.15687133,8.18382353 7.21319666,8.20763964 7.25731431,8.25543919 C7.30145771,8.30321085 7.32345215,8.36428496 7.32345215,8.43857784 L7.32345215,9.96732682 L8.73526836,9.96732682 C8.80395591,9.96732682 8.86028124,9.99114293 8.90439889,10.0389425 C8.94854229,10.0867141 8.97053673,10.1477883 8.97053673,10.2220811 L8.97053673,11.2412378 L8.97058824,11.2412378 Z M12.955317,12.3676126 C12.7685871,12.5636682 12.5432766,12.6617647 12.2793071,12.6617647 C12.0156254,12.6617647 11.7902365,12.5636682 11.603585,12.3676126 C11.4168551,12.1717491 11.3235294,11.9351037 11.3235294,11.6580608 C11.3235294,11.3809904 11.4168551,11.1444548 11.603585,10.9484815 C11.7902365,10.7526181 12.0156254,10.6544118 12.2793071,10.6544118 C12.5432766,10.6544118 12.7685871,10.7526181 12.955317,10.9484815 C13.1418638,11.1444548 13.2352941,11.3809904 13.2352941,11.6580608 C13.2352941,11.9351037 13.1418638,12.1717491 12.955317,12.3676126 Z M14.8668878,10.3603768 C14.6803773,10.556336 14.4550007,10.6544118 14.1911242,10.6544118 C13.9272476,10.6544118 13.7019756,10.5564459 13.5153606,10.3603768 C13.3286409,10.1642803 13.2352941,9.92781092 13.2352941,9.65066663 C13.2352941,9.37368714 13.3286409,9.13713539 13.5153606,8.94112124 C13.7019756,8.74505216 13.9272476,8.64705882 14.1911242,8.64705882 C14.4550007,8.64705882 14.6803773,8.74505216 14.8668878,8.94112124 C15.0536074,9.13713539 15.1470588,9.37368714 15.1470588,9.65066663 C15.1470588,9.92778345 15.0537121,10.1643627 14.8668878,10.3603768 Z" id="Shape"></path>
                    </g>
                </g>
            </g>
        </g>
    </g>
</svg>