<?xml version="1.0" encoding="UTF-8"?>
<svg width="30px" height="39px" viewBox="0 0 30 39" version="1.1" xmlns="http://www.w3.org/2000/svg" xmlns:xlink="http://www.w3.org/1999/xlink">
    <!-- Generator: Sketch 46.2 (44496) - http://www.bohemiancoding.com/sketch -->
    <title>logo</title>
    <desc>Created with Sketch.</desc>
    <defs>
        <linearGradient x1="0%" y1="0%" x2="101.999998%" y2="100.999999%" id="linearGradient-1">
            <stop stop-color="#51C7FF" offset="0%"></stop>
            <stop stop-color="#8407C3" offset="100%"></stop>
        </linearGradient>
        <linearGradient x1="50%" y1="0%" x2="50%" y2="100%" id="linearGradient-2">
            <stop stop-color="#C8C8C8" offset="0%"></stop>
            <stop stop-color="#979797" offset="100%"></stop>
        </linearGradient>
    </defs>
    <g id="Not-Logged" stroke="none" stroke-width="1" fill="none" fill-rule="evenodd">
        <g id="Index" transform="translate(-797.000000, -425.000000)" fill-rule="nonzero">
            <g id="map" transform="translate(414.000000, 101.000000)">
                <g id="logo" transform="translate(382.000000, 323.000000)">
                    <path d="M16.025641,2.32450331 C8.32020196,2.32450331 2.05128205,8.63835444 2.05128205,16.3991245 C2.05128205,19.687615 3.17689645,22.7160166 5.0603569,25.1146803 L16.025641,39 L26.9909252,25.1146803 C28.8743856,22.7160166 30,19.687615 30,16.3991245 C30,8.63835444 23.7310801,2.32450331 16.025641,2.32450331 Z" id="Shape" stroke="url(#linearGradient-2)" stroke-width="1" fill="url(#linearGradient-1)"></path>
                    <g id="logo&gt;fitness" transform="translate(6.153846, 6.198675)" fill="#FFFFFF">
                        <path d="M7.98311019,17.2345902 C8.13330532,17.3924456 8.12254949,17.5503349 7.95090712,17.708258 L7.24243955,18.4188611 C7.09214781,18.5767842 6.94188828,18.5655161 6.79159654,18.3850229 L2.60519724,13.6815743 C2.4549055,13.5010811 2.46566133,13.3318898 2.63740031,13.1740006 L3.34586788,12.4634312 C3.49615962,12.3056097 3.64641915,12.3168439 3.79671088,12.4972356 L7.98311019,17.2345902 Z" id="Shape"></path>
                        <path d="M13.2688214,8.48635255 C13.4201968,8.64672742 13.4201968,8.80703358 13.2688214,8.96733974 L8.72888983,13.4680057 C8.55594963,13.6283118 8.39380805,13.6283118 8.24246511,13.4680057 L7.17233074,12.2311814 C7.02098779,12.0479253 7.02098779,11.8761442 7.17233074,11.715838 L11.7122948,7.21517209 C11.8852025,7.05483157 12.0473441,7.06630656 12.1987195,7.24952832 L13.2688214,8.48635255 Z" id="Shape"></path>
                        <path d="M9.60091112,15.8331582 C9.75087255,15.991507 9.74016331,16.1498559 9.56875126,16.3082726 L8.86123436,17.0209442 C8.68972583,17.1792931 8.52892653,17.1792931 8.37883647,17.0209442 L4.23021461,12.2698339 C4.08012454,12.1114172 4.08012454,11.9530683 4.23021461,11.7947195 L4.96989137,11.0820478 C5.11998144,10.9236311 5.27003934,10.9236311 5.4201294,11.0820478 L9.60091112,15.8331582 Z" id="Shape"></path>
                        <path d="M16.5046061,8.73019873 C16.6553274,8.88864852 16.6553274,9.0469965 16.5046061,9.20531054 L15.7616594,9.91797827 C15.6108089,10.0763602 15.460023,10.0763602 15.3094309,9.91797827 L11.1425012,5.1668601 C10.9917153,5.00847818 10.9917153,4.8501302 11.1425012,4.69174828 L11.8531459,3.97908056 C12.0253803,3.82069864 12.1868905,3.82069864 12.3376763,3.97908056 L16.5046061,8.73019873 Z" id="Shape"></path>
                        <path d="M17.9830585,7.0097186 C18.1333232,7.19018022 18.122567,7.35937356 17.9508543,7.51729863 L17.2423623,8.22791068 C17.0919688,8.3855312 16.9416397,8.37426293 16.7915038,8.19407201 L12.6049604,3.49049701 C12.4549855,3.31003539 12.4657417,3.14084204 12.6371646,2.98291697 L13.3456565,2.27230492 C13.4959212,2.11437985 13.646186,2.12568197 13.7965151,2.30614359 L17.9830585,7.0097186 Z" id="Shape"></path>
                    </g>
                </g>
            </g>
        </g>
    </g>
</svg>