<?xml version="1.0" encoding="UTF-8"?>
<svg width="30px" height="39px" viewBox="0 0 30 39" version="1.1" xmlns="http://www.w3.org/2000/svg" xmlns:xlink="http://www.w3.org/1999/xlink">
    <!-- Generator: Sketch 46.2 (44496) - http://www.bohemiancoding.com/sketch -->
    <title>logo</title>
    <desc>Created with Sketch.</desc>
    <defs>
        <linearGradient x1="0%" y1="0%" x2="101.999998%" y2="100.999999%" id="linearGradient-1">
            <stop stop-color="#51C7FF" offset="0%"></stop>
            <stop stop-color="#8407C3" offset="100%"></stop>
        </linearGradient>
        <linearGradient x1="50%" y1="0%" x2="50%" y2="100%" id="linearGradient-2">
            <stop stop-color="#C8C8C8" offset="0%"></stop>
            <stop stop-color="#979797" offset="100%"></stop>
        </linearGradient>
    </defs>
    <g id="Not-Logged" stroke="none" stroke-width="1" fill="none" fill-rule="evenodd">
        <g id="Index" transform="translate(-797.000000, -425.000000)" fill-rule="nonzero">
            <g id="map" transform="translate(414.000000, 101.000000)">
                <g id="logo" transform="translate(382.000000, 323.000000)">
                    <path d="M16.025641,2.32450331 C8.32020196,2.32450331 2.05128205,8.63835444 2.05128205,16.3991245 C2.05128205,19.687615 3.17689645,22.7160166 5.0603569,25.1146803 L16.025641,39 L26.9909252,25.1146803 C28.8743856,22.7160166 30,19.687615 30,16.3991245 C30,8.63835444 23.7310801,2.32450331 16.025641,2.32450331 Z" id="Shape" stroke="url(#linearGradient-2)" stroke-width="1" fill="url(#linearGradient-1)"></path>
                    <g id="logo&gt;house" transform="translate(6.153846, 6.198675)" fill="#FFFFFF">
                        <path d="M11.0784373,5.09558824 C10.8997921,5.09558824 10.7324865,5.14684146 10.5882353,5.23592649 L10.5882353,13.9573307 C10.7324865,13.8682456 10.8997653,13.8169924 11.0784373,13.8169924 C12.0588146,13.8169924 13.0392187,14.5147059 15,14.5147059 L15,5.79330171 C13.0392187,5.79330171 12.0588414,5.09558824 11.0784373,5.09558824 Z" id="Shape"></path>
                        <path d="M8.92156267,5.09558824 C7.94118541,5.09558824 6.96078134,5.79330171 5,5.79330171 L5,14.5147059 C6.96078134,14.5147059 7.9411586,13.8169924 8.92156267,13.8169924 C9.10018108,13.8169924 9.26751352,13.8682456 9.41176471,13.9573307 L9.41176471,5.23592649 C9.26748671,5.14684146 9.10018108,5.09558824 8.92156267,5.09558824 Z" id="Shape"></path>
                        <path d="M16.0609361,7.56617647 L16.0609361,15.3521034 L15.0630486,15.3521034 C13.7586814,15.3521034 12.8482738,15.096239 12.1167825,14.8906644 C11.6881147,14.7701743 11.3495189,14.6750651 11.0714442,14.6750651 L10.0735294,15.2627147 L10.0735294,15.2629646 L9.0747415,14.6747319 C8.79756721,14.6750929 8.45897145,14.7702576 8.0303036,14.8907199 C7.29878504,15.0962945 6.38840476,15.352159 5.08403751,15.352159 L4.08612276,15.352159 L4.08612276,7.56617647 L3.08823529,7.56617647 L3.08823529,16.3676471 L17.0588235,16.3676471 L17.0588235,7.56617647 L16.0609361,7.56617647 Z" id="Shape"></path>
                    </g>
                </g>
            </g>
        </g>
    </g>
</svg>