<?xml version="1.0" encoding="UTF-8"?>
<svg width="30px" height="39px" viewBox="0 0 30 39" version="1.1" xmlns="http://www.w3.org/2000/svg" xmlns:xlink="http://www.w3.org/1999/xlink">
    <!-- Generator: Sketch 46.2 (44496) - http://www.bohemiancoding.com/sketch -->
    <title>logo</title>
    <desc>Created with Sketch.</desc>
    <defs>
        <linearGradient x1="0%" y1="0%" x2="101.999998%" y2="100.999999%" id="linearGradient-1">
            <stop stop-color="#51C7FF" offset="0%"></stop>
            <stop stop-color="#8407C3" offset="100%"></stop>
        </linearGradient>
        <linearGradient x1="50%" y1="0%" x2="50%" y2="100%" id="linearGradient-2">
            <stop stop-color="#C8C8C8" offset="0%"></stop>
            <stop stop-color="#979797" offset="100%"></stop>
        </linearGradient>
    </defs>
    <g id="Not-Logged" stroke="none" stroke-width="1" fill="none" fill-rule="evenodd">
        <g id="Index" transform="translate(-797.000000, -425.000000)" fill-rule="nonzero">
            <g id="map" transform="translate(414.000000, 101.000000)">
                <g id="logo" transform="translate(382.000000, 323.000000)">
                    <path d="M16.025641,2.32450331 C8.32020196,2.32450331 2.05128205,8.63835444 2.05128205,16.3991245 C2.05128205,19.687615 3.17689645,22.7160166 5.0603569,25.1146803 L16.025641,39 L26.9909252,25.1146803 C28.8743856,22.7160166 30,19.687615 30,16.3991245 C30,8.63835444 23.7310801,2.32450331 16.025641,2.32450331 Z" id="Shape" stroke="url(#linearGradient-2)" stroke-width="1" fill="url(#linearGradient-1)"></path>
                    <g id="logo&gt;networking" transform="translate(6.153846, 6.198675)" fill="#FFFFFF">
                        <path d="M8.38235294,8.01356714 L7.52613653,7.18110801 C7.62586373,6.99471357 7.68755683,6.78367193 7.68755683,6.55599343 C7.68755683,5.8344467 7.11944122,5.25 6.41775705,5.25 C5.71607288,5.25 5.14705882,5.83413861 5.14705882,6.55599343 C5.14705882,7.27784826 5.71607288,7.86260305 6.41775705,7.86260305 C6.66512842,7.86260305 6.89393197,7.78681291 7.08919363,7.6611122 L7.94421212,8.49264706 C8.07358795,8.31672768 8.21943523,8.15559662 8.38235294,8.01356714 Z" id="Shape"></path>
                        <path d="M12.0070207,8.02941176 L13.1200228,5.94609862 C13.2295945,5.98096715 13.3432678,6.00605946 13.4625075,6.00605946 C14.1501137,6.00605946 14.7058824,5.38755041 14.7058824,4.62402738 C14.7058824,3.86083023 14.1501137,3.24264706 13.4625075,3.24264706 C12.7760732,3.24264706 12.2205976,3.86050436 12.2205976,4.62402738 C12.2205976,5.00301897 12.3580016,5.34551265 12.5800747,5.59545809 L11.4705882,7.6729055 C11.6613133,7.76903836 11.8411983,7.88896003 12.0070207,8.02941176 Z" id="Shape"></path>
                        <path d="M16.0783383,9.41911765 C15.5297598,9.41911765 15.0650921,9.77801525 14.8849394,10.2784281 L13.2975506,10.1170945 C13.2975506,10.129481 13.2993551,10.1412481 13.2993551,10.1533249 C13.2993551,10.366372 13.2764977,10.5744645 13.2352941,10.7754347 L14.8220815,10.9367683 C14.9180226,11.5635231 15.4422399,12.0441176 16.0783383,12.0441176 C16.7827083,12.0441176 17.3529412,11.4569996 17.3529412,10.7317725 C17.3529412,10.0068551 16.7827083,9.41911765 16.0783383,9.41911765 Z" id="Shape"></path>
                        <path d="M11.5822907,14.916011 L11.2344545,13.2794118 C11.0381334,13.3530524 10.8338533,13.4057435 10.6207299,13.4320891 L10.9691557,15.0690057 C10.5697336,15.2940539 10.2941176,15.7387544 10.2941176,16.2580477 C10.2941176,17.001437 10.8530138,17.6029412 11.544854,17.6029412 C12.2352204,17.6029412 12.7941166,17.0011196 12.7941166,16.2580477 C12.7950009,15.5283073 12.2549705,14.9375953 11.5822907,14.916011 Z" id="Shape"></path>
                        <path d="M7.57951715,10.8088235 L5.52423249,11.4686711 C5.28710833,11.1215091 4.87886686,10.891267 4.41431622,10.891267 C3.68135854,10.891267 3.08823529,11.459977 3.08823529,12.1620956 C3.08823529,12.8651135 3.68135854,13.4338235 4.41431622,13.4338235 C5.14664824,13.4338235 5.74133562,12.8651135 5.74133562,12.1620956 C5.74133562,12.1327157 5.73476622,12.1057342 5.73226359,12.076954 L7.79411765,11.4153077 C7.70120752,11.2231394 7.62737994,11.0207782 7.57951715,10.8088235 Z" id="Shape"></path>
                        <ellipse id="Oval" cx="10.3676471" cy="10.4227941" rx="2.27941176" ry="2.39338235"></ellipse>
                    </g>
                </g>
            </g>
        </g>
    </g>
</svg>