<?xml version="1.0" encoding="UTF-8"?>
<svg width="30px" height="39px" viewBox="0 0 30 39" version="1.1" xmlns="http://www.w3.org/2000/svg" xmlns:xlink="http://www.w3.org/1999/xlink">
    <!-- Generator: Sketch 46.2 (44496) - http://www.bohemiancoding.com/sketch -->
    <title>logo</title>
    <desc>Created with Sketch.</desc>
    <defs>
        <linearGradient x1="0%" y1="0%" x2="101.999998%" y2="100.999999%" id="linearGradient-1">
            <stop stop-color="#51C7FF" offset="0%"></stop>
            <stop stop-color="#8407C3" offset="100%"></stop>
        </linearGradient>
        <linearGradient x1="50%" y1="0%" x2="50%" y2="100%" id="linearGradient-2">
            <stop stop-color="#C8C8C8" offset="0%"></stop>
            <stop stop-color="#979797" offset="100%"></stop>
        </linearGradient>
    </defs>
    <g id="Not-Logged" stroke="none" stroke-width="1" fill="none" fill-rule="evenodd">
        <g id="Index" transform="translate(-797.000000, -425.000000)" fill-rule="nonzero">
            <g id="map" transform="translate(414.000000, 101.000000)">
                <g id="logo" transform="translate(382.000000, 323.000000)">
                    <path d="M16.025641,2.32450331 C8.32020196,2.32450331 2.05128205,8.63835444 2.05128205,16.3991245 C2.05128205,19.687615 3.17689645,22.7160166 5.0603569,25.1146803 L16.025641,39 L26.9909252,25.1146803 C28.8743856,22.7160166 30,19.687615 30,16.3991245 C30,8.63835444 23.7310801,2.32450331 16.025641,2.32450331 Z" id="Shape" stroke="url(#linearGradient-2)" stroke-width="1" fill="url(#linearGradient-1)"></path>
                    <g id="logo&gt;ports" transform="translate(6.153846, 6.198675)" fill="#FFFFFF">
                        <path d="M7.73321268,9.9979558 L8.07226207,9.9959656 L8.24307838,9.69511363 C8.32735637,9.546512 8.4381125,9.41880748 8.56598255,9.31365856 L10,6.57646959 L8.2837643,3.30159481 C8.12263512,2.99410884 7.765826,2.85612162 7.44776539,2.97785554 L4.70760055,4.02602776 C4.51547257,4.09966517 4.36596793,4.25821781 4.30041838,4.45756955 C4.23486884,4.65658959 4.26037827,4.87584333 4.37016569,5.05396627 L7.43581794,10.0367647 C7.53204338,10.0135457 7.63052915,9.9989509 7.73321268,9.9979558 Z" id="Shape"></path>
                        <path d="M16.2889805,4.45730899 C16.2257119,4.25761623 16.0814096,4.09905619 15.8959672,4.02574705 L13.251465,2.9778576 C12.9435371,2.85611799 12.5997674,2.99411166 12.4448684,3.30161198 L9.55882353,9.00811476 C9.75984933,9.02105166 9.95651179,9.08009703 10.1322925,9.18690944 L10.415287,9.35940153 L10.6982814,9.18724116 C10.8968139,9.06649669 11.1212148,9.00280731 11.3493557,9.00280731 C11.8149876,9.00280731 12.250076,9.26851147 12.4844502,9.69609283 L12.6486992,9.99662712 L12.9753272,9.9982857 C13.0741259,9.99894913 13.1701196,10.0135446 13.2629967,10.0367647 L16.2216602,5.05406528 C16.3279389,4.87593403 16.352249,4.65667004 16.2889805,4.45730899 Z" id="Shape"></path>
                        <path d="M14.0823619,12.5346129 L13.4694034,12.1593796 L13.4656216,11.4145382 C13.4637308,11.032687 13.1696998,10.7236324 12.8053913,10.7213161 L12.0963134,10.7173454 L11.7389381,10.0740883 C11.5555233,9.74385653 11.152767,9.63036004 10.8360456,9.82029295 L10.2205659,10.1895702 L9.60508628,9.81996206 C9.28836481,9.63002915 8.88560855,9.74352564 8.70250888,10.0737574 L8.34481846,10.7170145 L7.63574054,10.7213161 C7.27206235,10.7236324 6.97771623,11.0323561 6.97551021,11.4145382 L6.97172846,12.1593796 L6.35908513,12.5346129 C6.04425454,12.7275239 5.93647469,13.1504059 6.11736835,13.482623 L6.469071,14.1288582 L6.1170532,14.7747624 C5.93615955,15.1069795 6.04425454,15.5295306 6.35876999,15.7227725 L6.97172846,16.0983367 L6.97551021,16.8428472 C6.97740108,17.2246984 7.2717472,17.5340839 7.63574054,17.5364002 L8.34481846,17.5403709 L8.70219373,18.183628 C8.88560855,18.5138598 9.28836481,18.6270254 9.60508628,18.4374234 L10.2205659,18.0678152 L10.8360456,18.4374234 C10.9400437,18.4996313 11.0534961,18.5294118 11.1647426,18.5294118 C11.3932232,18.5294118 11.615401,18.4053267 11.7383078,18.183628 L12.0963134,17.54004 L12.8057064,17.5360693 C13.1693846,17.5340839 13.4637308,17.2250293 13.4656216,16.8425163 L13.4694034,16.0980058 L14.0820467,15.7227725 C14.3968773,15.5298615 14.5046571,15.1073104 14.3237635,14.7747624 L13.9717457,14.1288582 L14.3237635,13.482623 C14.5052874,13.1504059 14.3968773,12.727193 14.0823619,12.5346129 Z M12.7474045,13.5997593 L11.4827246,14.5653068 L11.9655279,16.1251391 C12.0074423,16.2598128 11.9617461,16.4080531 11.8523906,16.4917691 C11.7975552,16.5334617 11.7332655,16.5539771 11.6689758,16.5539771 C11.6043709,16.5539771 11.539766,16.5334617 11.4849306,16.4917691 L10.2205659,15.5268835 L8.9562012,16.4917691 C8.84684563,16.5751543 8.69841198,16.5751543 8.58874126,16.4917691 C8.47938569,16.408384 8.43368956,16.2598128 8.47560394,16.1251391 L8.95840722,14.5653068 L7.6940425,13.5997593 C7.58437178,13.516705 7.53867565,13.3681338 7.58090518,13.2331293 C7.62250442,13.0987865 7.74289009,13.0064672 7.87777247,13.0064672 L9.44058021,13.0064672 L9.92369863,11.4459731 C9.96561301,11.3109685 10.0856835,11.2196419 10.2208811,11.2196419 C10.3560786,11.2196419 10.4761491,11.3106376 10.5177484,11.4459731 L11.0008668,13.0064672 L12.5630442,13.0064672 C12.6979266,13.0064672 12.8186274,13.0981247 12.8599115,13.2331293 C12.902141,13.3678029 12.8561298,13.516705 12.7474045,13.5997593 Z" id="Shape"></path>
                    </g>
                </g>
            </g>
        </g>
    </g>
</svg>