<svg width="30" height="39" xmlns="http://www.w3.org/2000/svg"><defs><linearGradient x1="0%" y1="0%" x2="102%" y2="101%" id="b"><stop stop-color="#51C7FF" offset="0%"/><stop stop-color="#8407C3" offset="100%"/></linearGradient><linearGradient x1="50%" y1="0%" x2="50%" y2="100%" id="a"><stop stop-color="#C8C8C8" offset="0%"/><stop stop-color="#979797" offset="100%"/></linearGradient></defs><g fill="none"><path d="M16.026 2.325C8.32 2.325 2.05 8.638 2.05 16.399a14.07 14.07 0 0 0 3.01 8.716L16.025 39 26.99 25.115A14.07 14.07 0 0 0 30 16.399c0-7.76-6.269-14.074-13.974-14.074z" stroke="url(#a)" fill="url(#b)" transform="translate(-1 -1)"/><g fill="#FFF"><path d="M15.933 8.872l6.439 7.599h1.017l-7.466-8.802-3.384 3.94v-2.18h-1.667v4.124L8.39 16.471h1.032z"/><path d="M15.786 10.14L10.3 16.526v7.048h10.82v-7.078h.062l-5.397-6.356zm-2.327 9.655c-.1.14-.187.291-.26.454H11.99c0-1.34.57-1.905 1.364-2.09a1.428 1.428 0 0 1-.657-1.216c0-.774.595-1.405 1.328-1.405.518 0 .966.312 1.185.767-.919.255-1.598 1.138-1.598 2.186 0 .324.066.638.188.925a2.33 2.33 0 0 0-.342.38zm1.624-.08a1.429 1.429 0 0 1-.658-1.217c0-.774.595-1.408 1.328-1.408.734 0 1.328.627 1.328 1.401 0 .516-.264.98-.657 1.224.794.184 1.365.749 1.365 2.09h-4.07c0-1.341.57-1.906 1.364-2.09zm3.225.534a2.528 2.528 0 0 0-.261-.454 2.34 2.34 0 0 0-.343-.379 2.36 2.36 0 0 0 .19-.925c0-1.065-.703-1.96-1.644-2.197a1.32 1.32 0 0 1 1.18-.76c.733 0 1.328.628 1.328 1.403 0 .516-.265.98-.658 1.223.795.184 1.365.749 1.365 2.09h-1.157z"/></g></g></svg>