<svg width="30" height="39" xmlns="http://www.w3.org/2000/svg"><defs><linearGradient x1="0%" y1="0%" x2="102%" y2="101%" id="b"><stop stop-color="#51C7FF" offset="0%"/><stop stop-color="#8407C3" offset="100%"/></linearGradient><linearGradient x1="50%" y1="0%" x2="50%" y2="100%" id="a"><stop stop-color="#C8C8C8" offset="0%"/><stop stop-color="#979797" offset="100%"/></linearGradient></defs><g fill="none"><path d="M16.026 2.325C8.32 2.325 2.05 8.638 2.05 16.399a14.07 14.07 0 0 0 3.01 8.716L16.025 39 26.99 25.115A14.07 14.07 0 0 0 30 16.399c0-7.76-6.269-14.074-13.974-14.074z" stroke="url(#a)" fill="url(#b)" transform="translate(-1 -1)"/><g fill="#FFF"><path d="M16.232 10.294a.929.929 0 0 0-.49.14v8.722a.929.929 0 0 1 .49-.14c.98 0 1.961.697 3.922.697v-8.721c-1.96 0-2.941-.698-3.922-.698zm-2.157 0c-.98 0-1.96.698-3.921.698v8.721c1.96 0 2.941-.697 3.921-.697.179 0 .346.05.49.14v-8.721a.929.929 0 0 0-.49-.14z"/><path d="M21.215 12.765v7.786h-.998c-1.304 0-2.215-.256-2.946-.462-.429-.12-.768-.215-1.046-.215l-.998.587-.998-.588c-.278 0-.616.096-1.045.216-.731.206-1.642.462-2.946.462H9.24v-7.786h-.998v8.801h13.97v-8.801h-.997z"/></g></g></svg>