<svg width="30" height="39" xmlns="http://www.w3.org/2000/svg"><defs><linearGradient x1="0%" y1="0%" x2="102%" y2="101%" id="b"><stop stop-color="#51C7FF" offset="0%"/><stop stop-color="#8407C3" offset="100%"/></linearGradient><linearGradient x1="50%" y1="0%" x2="50%" y2="100%" id="a"><stop stop-color="#C8C8C8" offset="0%"/><stop stop-color="#979797" offset="100%"/></linearGradient></defs><g fill="none"><path d="M16.026 2.325C8.32 2.325 2.05 8.638 2.05 16.399a14.07 14.07 0 0 0 3.01 8.716L16.025 39 26.99 25.115A14.07 14.07 0 0 0 30 16.399c0-7.76-6.269-14.074-13.974-14.074z" stroke="url(#a)" fill="url(#b)" transform="translate(-1 -1)"/><path d="M14.376 10.44a5.325 5.325 0 0 0-3.002 1.604l-.178.188A5.827 5.827 0 0 0 9.6 16.275c0 1.393.472 2.71 1.336 3.751L8.83 22.238l.538.564 2.106-2.212a5.258 5.258 0 0 0 3.572 1.403c1.455 0 2.822-.595 3.85-1.675l.18-.187a5.787 5.787 0 0 0 1.528-3.152l1.167-7.766-7.395 1.227zm-2.371 9.428a4.794 4.794 0 0 1-.528-.554l5.943-6.24.528.554-5.943 6.24z" fill="#FFF"/></g></svg>