<svg width="30" height="39" xmlns="http://www.w3.org/2000/svg"><defs><linearGradient x1="0%" y1="0%" x2="102%" y2="101%" id="b"><stop stop-color="#51C7FF" offset="0%"/><stop stop-color="#8407C3" offset="100%"/></linearGradient><linearGradient x1="50%" y1="0%" x2="50%" y2="100%" id="a"><stop stop-color="#C8C8C8" offset="0%"/><stop stop-color="#979797" offset="100%"/></linearGradient></defs><g fill="none"><path d="M16.026 2.325C8.32 2.325 2.05 8.638 2.05 16.399a14.07 14.07 0 0 0 3.01 8.716L16.025 39 26.99 25.115A14.07 14.07 0 0 0 30 16.399c0-7.76-6.269-14.074-13.974-14.074z" stroke="url(#a)" fill="url(#b)" transform="translate(-1 -1)"/><path d="M13.137 22.433c.15.158.14.316-.032.474l-.709.71c-.15.158-.3.147-.45-.033L7.758 18.88c-.15-.18-.14-.35.032-.507l.709-.71c.15-.159.3-.147.45.033l4.187 4.737zm5.286-8.748c.151.16.151.32 0 .481l-4.54 4.5c-.173.161-.335.161-.487 0l-1.07-1.236c-.151-.183-.151-.355 0-.515l4.54-4.501c.173-.16.335-.149.487.034l1.07 1.237zm-3.668 7.347c.15.158.139.317-.032.475l-.708.713c-.171.158-.332.158-.482 0l-4.149-4.751c-.15-.159-.15-.317 0-.476l.74-.712c.15-.159.3-.159.45 0l4.18 4.75zm6.903-7.103c.151.158.151.317 0 .475l-.742.713c-.151.158-.302.158-.453 0l-4.167-4.751c-.15-.159-.15-.317 0-.476l.711-.712c.172-.159.334-.159.485 0l4.166 4.75zm1.479-1.721c.15.18.14.35-.032.508l-.709.71c-.15.158-.3.147-.45-.033l-4.187-4.704c-.15-.18-.14-.35.032-.507l.709-.711c.15-.158.3-.147.45.034l4.187 4.703z" fill="#FFF"/></g></svg>