<svg width="30" height="39" xmlns="http://www.w3.org/2000/svg"><defs><linearGradient x1="0%" y1="0%" x2="102%" y2="101%" id="b"><stop stop-color="#51C7FF" offset="0%"/><stop stop-color="#8407C3" offset="100%"/></linearGradient><linearGradient x1="50%" y1="0%" x2="50%" y2="100%" id="a"><stop stop-color="#C8C8C8" offset="0%"/><stop stop-color="#979797" offset="100%"/></linearGradient></defs><g fill="none"><path d="M16.026 2.325C8.32 2.325 2.05 8.638 2.05 16.399a14.07 14.07 0 0 0 3.01 8.716L16.025 39 26.99 25.115A14.07 14.07 0 0 0 30 16.399c0-7.76-6.269-14.074-13.974-14.074z" stroke="url(#a)" fill="url(#b)" transform="translate(-1 -1)"/><path d="M12.887 15.197l.34-.002.17-.301c.084-.149.195-.277.323-.382l1.434-2.737L13.438 8.5a.672.672 0 0 0-.836-.323l-2.74 1.048a.691.691 0 0 0-.408.431.714.714 0 0 0 .07.597l3.066 4.982a1.32 1.32 0 0 1 .297-.038zm8.556-5.541a.68.68 0 0 0-.393-.432l-2.645-1.047a.638.638 0 0 0-.806.323l-2.886 5.707c.2.013.397.072.573.179l.283.172.283-.172a1.26 1.26 0 0 1 .651-.185c.466 0 .9.266 1.135.694l.165.3.326.002c.099 0 .195.015.288.038l2.959-4.982a.736.736 0 0 0 .067-.597zm-2.207 8.077l-.613-.375-.004-.745a.68.68 0 0 0-.66-.693l-.709-.004-.357-.643a.647.647 0 0 0-.903-.254l-.616.37-.615-.37a.646.646 0 0 0-.903.253l-.357.644-.71.004c-.363.002-.657.311-.66.693l-.003.745-.613.375a.716.716 0 0 0-.242.948l.352.647-.352.645a.717.717 0 0 0 .242.948l.613.376.003.745c.002.381.297.69.66.693l.71.004.357.643c.183.33.586.444.903.254l.615-.37.616.37a.64.64 0 0 0 .329.092c.228 0 .45-.124.573-.346l.358-.643.71-.004c.363-.002.658-.311.66-.694l.003-.744.613-.376a.716.716 0 0 0 .242-.948l-.352-.645.352-.647a.716.716 0 0 0-.242-.948zm-1.335 1.065l-1.264.966.482 1.56a.337.337 0 0 1-.113.366.302.302 0 0 1-.367 0l-1.265-.964-1.264.964a.301.301 0 0 1-.367 0 .337.337 0 0 1-.114-.366l.483-1.56-1.264-.966a.336.336 0 0 1-.113-.366.315.315 0 0 1 .297-.227h1.562l.484-1.56a.314.314 0 0 1 .297-.227c.135 0 .255.091.297.227l.483 1.56h1.562c.135 0 .255.092.297.227a.337.337 0 0 1-.113.366z" fill="#FFF"/></g></svg>