<svg width="30" height="39" xmlns="http://www.w3.org/2000/svg"><defs><linearGradient x1="0%" y1="0%" x2="102%" y2="101%" id="b"><stop stop-color="#51C7FF" offset="0%"/><stop stop-color="#8407C3" offset="100%"/></linearGradient><linearGradient x1="50%" y1="0%" x2="50%" y2="100%" id="a"><stop stop-color="#C8C8C8" offset="0%"/><stop stop-color="#979797" offset="100%"/></linearGradient></defs><g fill="none"><path d="M16.026 2.325C8.32 2.325 2.05 8.638 2.05 16.399a14.07 14.07 0 0 0 3.01 8.716L16.025 39 26.99 25.115A14.07 14.07 0 0 0 30 16.399c0-7.76-6.269-14.074-13.974-14.074z" stroke="url(#a)" fill="url(#b)" transform="translate(-1 -1)"/><path d="M12.12 13.802v8.351a.75.75 0 0 0 .253.565.845.845 0 0 0 1.178 0 .75.75 0 0 0 .253-.565v-8.351c.253-.084 1.203-.881 1.203-1.137V9.306a.376.376 0 0 0-.127-.282.423.423 0 0 0-.3-.12.423.423 0 0 0-.3.12.376.376 0 0 0-.126.282v2.612a.375.375 0 0 1-.127.283.422.422 0 0 1-.3.119.422.422 0 0 1-.3-.12.376.376 0 0 1-.126-.282V9.306a.376.376 0 0 0-.127-.282.423.423 0 0 0-.3-.12.423.423 0 0 0-.3.12.376.376 0 0 0-.126.282v2.612a.375.375 0 0 1-.127.283.422.422 0 0 1-.3.119.422.422 0 0 1-.3-.12.375.375 0 0 1-.126-.282V9.306a.376.376 0 0 0-.127-.282.423.423 0 0 0-.3-.12.422.422 0 0 0-.3.12.377.377 0 0 0-.126.282v3.36c0 .255 1.125 1.052 1.378 1.136zm4.271 2.165h.944v6.497c0 .217.082.405.247.564a.814.814 0 0 0 1.148 0 .757.757 0 0 0 .247-.564V9.15a.38.38 0 0 0-.123-.282.407.407 0 0 0-.292-.119h-.3a2.04 2.04 0 0 0-1.468.589c-.407.393-.61.865-.61 1.416v5.012c0 .054.02.101.061.14a.2.2 0 0 0 .146.06z" fill="#FFF"/></g></svg>