<svg width="30" height="39" xmlns="http://www.w3.org/2000/svg"><defs><linearGradient x1="0%" y1="0%" x2="102%" y2="101%" id="b"><stop stop-color="#51C7FF" offset="0%"/><stop stop-color="#8407C3" offset="100%"/></linearGradient><linearGradient x1="50%" y1="0%" x2="50%" y2="100%" id="a"><stop stop-color="#C8C8C8" offset="0%"/><stop stop-color="#979797" offset="100%"/></linearGradient></defs><g fill="none"><path d="M16.026 2.325C8.32 2.325 2.05 8.638 2.05 16.399a14.07 14.07 0 0 0 3.01 8.716L16.025 39 26.99 25.115A14.07 14.07 0 0 0 30 16.399c0-7.76-6.269-14.074-13.974-14.074z" stroke="url(#a)" fill="url(#b)" transform="translate(-1 -1)"/><path d="M12.173 12.147l-1.284 3.309.392.139.392.139 4.588 1.63.917.325.917.326zm.924 8.366l-.585-.212-2.122-.771-.385-.14-.386-.14-1.377 3.552 5.441-2.076zm3.373-1.358l-.596-.233-4.687-1.837-.389-.153-.389-.152-.55 1.563.389.155.388.156 3.01 1.205.59.236.589.236 2.24-.942zm-1.07-4.468l3.54-3.719.611.641-3.541 3.72zm2.627.137a3.701 3.701 0 0 0-1.108.668l.528.67c.013-.012 1.338-1.222 2.74-.335l.408-.763c-.788-.498-1.676-.581-2.568-.24zm1.601-4.396l.61-.641.611.641-.61.641zm1.412 5.638l.392-.808.77.413-.393.807zm-5.282-6.389l-.726.429c.347.605.405 1.264.17 1.958a3.163 3.163 0 0 1-.49.919l.32.276.32.278c.015-.02.395-.473.635-1.164.325-.937.246-1.87-.229-2.696zM14.486 8.64l.923-.495.393.807-.924.495zm2.464 1.728l.56-2.283.836.227-.56 2.282zm2.957 2.272l2.175-.588.215.878-2.174.589zm-6.417-1.803l.833-.241.23.874-.833.24zm5.418 6.343l.275-1.05.833.241-.276 1.05z" fill="#FFF"/></g></svg>