<svg width="30" height="39" xmlns="http://www.w3.org/2000/svg"><defs><linearGradient x1="0%" y1="0%" x2="102%" y2="101%" id="b"><stop stop-color="#51C7FF" offset="0%"/><stop stop-color="#8407C3" offset="100%"/></linearGradient><linearGradient x1="50%" y1="0%" x2="50%" y2="100%" id="a"><stop stop-color="#C8C8C8" offset="0%"/><stop stop-color="#979797" offset="100%"/></linearGradient></defs><g fill="none"><path d="M16.026 2.325C8.32 2.325 2.05 8.638 2.05 16.399a14.07 14.07 0 0 0 3.01 8.716L16.025 39 26.99 25.115A14.07 14.07 0 0 0 30 16.399c0-7.76-6.269-14.074-13.974-14.074z" stroke="url(#a)" fill="url(#b)" transform="translate(-1 -1)"/><path d="M21.642 9.504a3.365 3.365 0 0 0-2.444-1.063c-.885 0-1.77.355-2.444 1.063-1.35 1.417-1.35 3.715 0 5.132a3.363 3.363 0 0 0 2.444 1.063c.884 0 1.769-.355 2.444-1.063 1.35-1.417 1.35-3.715 0-5.132zm-6.634 3.724l-6.426 7.577a.854.854 0 0 0 .03 1.117l.339.355-.216.227a.398.398 0 0 0 0 .543l.032.034c.143.15.375.15.518 0l.216-.227.315.33c.286.3.762.315 1.064.033l7.215-6.745a4.227 4.227 0 0 1-1.968-1.176 4.543 4.543 0 0 1-1.119-2.068zm-.34 4.474l-1.537 1.614a.568.568 0 0 1-.833 0 .64.64 0 0 1 0-.874l1.537-1.613a.568.568 0 0 1 .833 0 .64.64 0 0 1 0 .873z" fill="#FFF"/></g></svg>