<svg width="30" height="39" xmlns="http://www.w3.org/2000/svg"><defs><linearGradient x1="0%" y1="0%" x2="102%" y2="101%" id="b"><stop stop-color="#51C7FF" offset="0%"/><stop stop-color="#8407C3" offset="100%"/></linearGradient><linearGradient x1="50%" y1="0%" x2="50%" y2="100%" id="a"><stop stop-color="#C8C8C8" offset="0%"/><stop stop-color="#979797" offset="100%"/></linearGradient></defs><g fill="none"><path d="M16.026 2.325C8.32 2.325 2.05 8.638 2.05 16.399a14.07 14.07 0 0 0 3.01 8.716L16.025 39 26.99 25.115A14.07 14.07 0 0 0 30 16.399c0-7.76-6.269-14.074-13.974-14.074z" stroke="url(#a)" fill="url(#b)" transform="translate(-1 -1)"/><path d="M14.458 13.73c-.43-.168-.905.076-1.06.544l-.496 1.503-.05-.926 1.568-4.735c.106-.316-.02-.675-.303-.83-.306-.168-.679-.035-.833.298l-2.198 4.731a.828.828 0 0 0-.075.343l.012 3.56-2.02 1.154c-.56.32-.776 1.073-.482 1.682.294.609.986.844 1.547.524l3.733-2.132.086-.049c.25-.145.438-.41.49-.738l.618-3.929c.067-.423-.153-.85-.537-1zm6.994 5.642l-2.02-1.153.012-3.56a.828.828 0 0 0-.075-.344l-2.198-4.731c-.154-.333-.527-.466-.833-.298-.283.155-.409.514-.304.83l1.568 4.735-.05.926-.495-1.503c-.155-.468-.63-.712-1.06-.544-.385.15-.604.577-.537 1l.618 3.93c.052.327.24.592.49.737l.086.049 3.733 2.132c.56.32 1.253.085 1.547-.524.294-.61.078-1.362-.482-1.682z" fill="#FFF"/></g></svg>