<svg width="30" height="39" xmlns="http://www.w3.org/2000/svg"><defs><linearGradient x1="0%" y1="0%" x2="102%" y2="101%" id="b"><stop stop-color="#51C7FF" offset="0%"/><stop stop-color="#8407C3" offset="100%"/></linearGradient><linearGradient x1="50%" y1="0%" x2="50%" y2="100%" id="a"><stop stop-color="#C8C8C8" offset="0%"/><stop stop-color="#979797" offset="100%"/></linearGradient></defs><g fill="none"><path d="M16.026 2.325C8.32 2.325 2.05 8.638 2.05 16.399a14.07 14.07 0 0 0 3.01 8.716L16.025 39 26.99 25.115A14.07 14.07 0 0 0 30 16.399c0-7.76-6.269-14.074-13.974-14.074z" stroke="url(#a)" fill="url(#b)" transform="translate(-1 -1)"/><path d="M20.791 11.742a.122.122 0 0 0-.118-.116H18.53V11c0-2.006-1.548-3.639-3.45-3.639-1.903 0-3.451 1.633-3.451 3.639v.627H9.488a.122.122 0 0 0-.119.116l-.832 11.542a.13.13 0 0 0 .031.095c.022.026.054.04.087.04h12.85a.116.116 0 0 0 .088-.04.13.13 0 0 0 .031-.095l-.833-11.542zm-8.137-.836c0-1.444 1.121-2.62 2.5-2.62 1.378 0 2.5 1.176 2.5 2.62v.624h-5v-.624zm-.588 4.33c-.65 0-1.177-.579-1.177-1.29 0-.514.235-.978.706-1.181v1.181c0 .285.211.516.47.516.26 0 .471-.231.471-.516v-1.18c.47.203.706.67.706 1.18 0 .711-.528 1.29-1.176 1.29zm5.882 0c-.649 0-1.177-.579-1.177-1.29 0-.514.236-.978.706-1.181v1.181c0 .285.212.516.471.516.26 0 .47-.231.47-.516v-1.18c.471.203.706.67.706 1.18 0 .711-.527 1.29-1.176 1.29z" fill="#FFF"/></g></svg>