<svg width="30" height="39" xmlns="http://www.w3.org/2000/svg"><defs><linearGradient x1="0%" y1="0%" x2="102%" y2="101%" id="b"><stop stop-color="#51C7FF" offset="0%"/><stop stop-color="#8407C3" offset="100%"/></linearGradient><linearGradient x1="50%" y1="0%" x2="50%" y2="100%" id="a"><stop stop-color="#C8C8C8" offset="0%"/><stop stop-color="#979797" offset="100%"/></linearGradient></defs><g fill="none"><path d="M16.026 2.325C8.32 2.325 2.05 8.638 2.05 16.399a14.07 14.07 0 0 0 3.01 8.716L16.025 39 26.99 25.115A14.07 14.07 0 0 0 30 16.399c0-7.76-6.269-14.074-13.974-14.074z" stroke="url(#a)" fill="url(#b)" transform="translate(-1 -1)"/><g fill="#FFF"><path d="M18.24 9.059c-4.292 0-4.263.872-4.263.872v2.423c.798-.073 1.345-.198 1.7-.31.526-.165.737-.331.774-.363.079-.1.19-.15.308-.15.05 0 .1.008.149.026.17.06.275.239.275.424v3.504a2.36 2.36 0 0 1 1.077-.258c.103.005.213.012.366.033a2.336 2.336 0 0 1 1.103.499c.394.32.735.814.804 1.397.011.096-.061.152-.152.127-.437-.118-.771-.141-1.1-.167l-.527-.024-.532-.008c-.304.003-.67.005-1.023.029l-.016.001a6.338 6.338 0 0 1-.582 2.669 3.645 3.645 0 0 0 1.64.394c2.356 0 4.266-2.294 4.266-5.123V9.93s.026-.872-4.266-.872zm2.826 4.756a1.282 1.282 0 0 1-1.72-.115 1.37 1.37 0 0 1-.113-1.768c.057-.077.166-.076.233-.008l1.607 1.652c.067.068.067.18-.007.24z"/><path d="M16.771 11.993s-.776.894-4.264.894c-3.487 0-4.265-.894-4.265-.894v5.25c0 2.9 1.91 5.25 4.265 5.25 2.355 0 4.264-2.35 4.264-5.25v-5.25zm-7.178 4.725a.16.16 0 0 1-.16-.179c.084-.675.632-1.197 1.296-1.197.665 0 1.213.522 1.297 1.197a.16.16 0 0 1-.16.18H9.593zm5.204 1.776c-.07.597-.412 1.102-.804 1.43a2.328 2.328 0 0 1-1.507.545c-.102-.005-.212-.01-.366-.033-.137-.028-.261-.052-.389-.101a2.35 2.35 0 0 1-.713-.408c-.393-.328-.735-.836-.804-1.434-.012-.099.06-.156.151-.13.437.12.772.146 1.1.17l.528.025.532.009c.304-.002.669-.004 1.023-.03.328-.025.663-.05 1.098-.172.09-.026.163.03.151.13zm.624-1.776h-2.273a.16.16 0 0 1-.16-.179c.083-.675.632-1.197 1.296-1.197s1.213.522 1.296 1.197a.16.16 0 0 1-.16.18z"/></g></g></svg>