<svg width="30" height="39" xmlns="http://www.w3.org/2000/svg"><defs><linearGradient x1="0%" y1="0%" x2="102%" y2="101%" id="b"><stop stop-color="#51C7FF" offset="0%"/><stop stop-color="#8407C3" offset="100%"/></linearGradient><linearGradient x1="50%" y1="0%" x2="50%" y2="100%" id="a"><stop stop-color="#C8C8C8" offset="0%"/><stop stop-color="#979797" offset="100%"/></linearGradient></defs><g fill="none"><path d="M16.026 2.325C8.32 2.325 2.05 8.638 2.05 16.399a14.07 14.07 0 0 0 3.01 8.716L16.025 39 26.99 25.115A14.07 14.07 0 0 0 30 16.399c0-7.76-6.269-14.074-13.974-14.074z" stroke="url(#a)" fill="url(#b)" transform="translate(-1 -1)"/><g fill="#FFF"><path d="M11.764 16.739l1.263-2.623.92 2.873 1.41-4.757 1.113 5.783.982-1.275h2.994c.756-1.076 1.178-2.12 1.178-3.253 0-2.149-1.6-3.81-3.667-3.81-1.133 0-2.267.554-3 1.454-.734-.9-1.867-1.454-3-1.454-2.067 0-3.668 1.661-3.668 3.81 0 .889.264 1.724.742 2.562H7.654v.69h4.11z"/><path d="M22.507 17.58H17.77l-1.353 1.803-1.084-4.302-1.284 3.581-1.016-2.885-.805 1.803h-2.221c1.012 1.271 2.416 2.615 4.107 4.207l.95 1.015.95-1.015c1.377-1.296 2.55-2.425 3.489-3.486h3.004v-.72z"/></g></g></svg>