<svg width="30" height="39" xmlns="http://www.w3.org/2000/svg"><defs><linearGradient x1="0%" y1="0%" x2="102%" y2="101%" id="b"><stop stop-color="#51C7FF" offset="0%"/><stop stop-color="#8407C3" offset="100%"/></linearGradient><linearGradient x1="50%" y1="0%" x2="50%" y2="100%" id="a"><stop stop-color="#C8C8C8" offset="0%"/><stop stop-color="#979797" offset="100%"/></linearGradient></defs><g fill="none"><path d="M16.026 2.325C8.32 2.325 2.05 8.638 2.05 16.399a14.07 14.07 0 0 0 3.01 8.716L16.025 39 26.99 25.115A14.07 14.07 0 0 0 30 16.399c0-7.76-6.269-14.074-13.974-14.074z" stroke="url(#a)" fill="url(#b)" transform="translate(-1 -1)"/><path d="M21.093 8.357a.259.259 0 0 0-.21-.068L12.66 9.415a.276.276 0 0 0-.231.278v9.999a2.692 2.692 0 0 0-2.122-1.017c-1.463 0-2.653 1.133-2.653 2.526 0 1.394 1.19 2.527 2.653 2.527 1.462 0 2.652-1.133 2.652-2.527 0-.065-.005-.129-.01-.193.004-.018.01-.034.01-.053v-8.143l7.694-1.054v5.126a2.693 2.693 0 0 0-2.123-1.017c-1.462 0-2.652 1.133-2.652 2.527 0 1.393 1.19 2.527 2.652 2.527 1.45 0 2.63-1.114 2.651-2.49l.002-.01V8.567a.287.287 0 0 0-.09-.21z" fill="#FFF"/></g></svg>