<svg width="30" height="39" xmlns="http://www.w3.org/2000/svg"><defs><linearGradient x1="0%" y1="0%" x2="102%" y2="101%" id="b"><stop stop-color="#51C7FF" offset="0%"/><stop stop-color="#8407C3" offset="100%"/></linearGradient><linearGradient x1="50%" y1="0%" x2="50%" y2="100%" id="a"><stop stop-color="#C8C8C8" offset="0%"/><stop stop-color="#979797" offset="100%"/></linearGradient></defs><g fill="none"><path d="M16.026 2.325C8.32 2.325 2.05 8.638 2.05 16.399a14.07 14.07 0 0 0 3.01 8.716L16.025 39 26.99 25.115A14.07 14.07 0 0 0 30 16.399c0-7.76-6.269-14.074-13.974-14.074z" stroke="url(#a)" fill="url(#b)" transform="translate(-1 -1)"/><path d="M17.82 12.77h-.806v-2.01c0-.21-.16-.38-.358-.38h-.386l-.773-2.75a.362.362 0 0 0-.343-.27.362.362 0 0 0-.344.27l-.772 2.75h-.386a.37.37 0 0 0-.359.38v2.009h-.806c-.881 0-1.598.76-1.598 1.693v7.417c0 .934.717 1.694 1.598 1.694h5.334c.88 0 1.598-.76 1.598-1.694v-7.417c0-.934-.717-1.693-1.598-1.693zm.275 3.546v3.86h-6.03v-3.86h6.03z" fill="#FFF"/></g></svg>