<svg width="30" height="39" xmlns="http://www.w3.org/2000/svg"><defs><linearGradient x1="0%" y1="0%" x2="102%" y2="101%" id="b"><stop stop-color="#51C7FF" offset="0%"/><stop stop-color="#8407C3" offset="100%"/></linearGradient><linearGradient x1="50%" y1="0%" x2="50%" y2="100%" id="a"><stop stop-color="#C8C8C8" offset="0%"/><stop stop-color="#979797" offset="100%"/></linearGradient></defs><g fill="none"><path d="M16.026 2.325C8.32 2.325 2.05 8.638 2.05 16.399a14.07 14.07 0 0 0 3.01 8.716L16.025 39 26.99 25.115A14.07 14.07 0 0 0 30 16.399c0-7.76-6.269-14.074-13.974-14.074z" stroke="url(#a)" fill="url(#b)" transform="translate(-1 -1)"/><path d="M13.442 15.87c-.309.348-.384.597-.788 1.25.261.186.762.617 1.11 1.358.695-.408 1.019-.47 1.387-.787 2.403-2.07 8.288-9.492 8.086-9.706-.212-.228-7.68 5.511-9.795 7.886zm-1.452 1.867c-1.045-.191-2.077.493-2.765 2.202-.69 1.71-1.92 2.394-2.16 2.352 1.285.481 5.203 1.712 6.177-2.973-.414-1.124-1.252-1.58-1.252-1.58z" fill="#FFF"/></g></svg>