<svg width="30" height="39" xmlns="http://www.w3.org/2000/svg"><defs><linearGradient x1="0%" y1="0%" x2="102%" y2="101%" id="b"><stop stop-color="#51C7FF" offset="0%"/><stop stop-color="#8407C3" offset="100%"/></linearGradient><linearGradient x1="50%" y1="0%" x2="50%" y2="100%" id="a"><stop stop-color="#C8C8C8" offset="0%"/><stop stop-color="#979797" offset="100%"/></linearGradient></defs><g fill="none"><path d="M16.026 2.325C8.32 2.325 2.05 8.638 2.05 16.399a14.07 14.07 0 0 0 3.01 8.716L16.025 39 26.99 25.115A14.07 14.07 0 0 0 30 16.399c0-7.76-6.269-14.074-13.974-14.074z" stroke="url(#a)" fill="url(#b)" transform="translate(-1 -1)"/><g transform="translate(5.154 5.199)" fill="#FFF"><path d="M8.382 8.014l-.856-.833c.1-.186.162-.397.162-.625 0-.722-.569-1.306-1.27-1.306-.702 0-1.27.584-1.27 1.306 0 .722.568 1.307 1.27 1.307.247 0 .476-.076.671-.202l.855.832a2.96 2.96 0 0 1 .438-.48zm3.625.016l1.113-2.084c.11.035.223.06.343.06.687 0 1.243-.618 1.243-1.382 0-.763-.556-1.381-1.243-1.381s-1.242.618-1.242 1.381c0 .379.137.722.36.971l-1.11 2.078c.19.096.37.216.536.356zm4.071 1.39c-.548 0-1.013.358-1.193.858l-1.587-.16.001.035c0 .213-.023.421-.064.622l1.587.162c.096.627.62 1.107 1.256 1.107.705 0 1.275-.587 1.275-1.312 0-.725-.57-1.313-1.275-1.313zm-4.496 5.496l-.348-1.637c-.196.074-.4.127-.613.153l.348 1.637c-.4.225-.675.67-.675 1.189 0 .743.559 1.345 1.25 1.345s1.25-.602 1.25-1.345c.001-.73-.539-1.32-1.212-1.342zM7.58 10.809l-2.056.66a1.34 1.34 0 0 0-1.11-.578c-.733 0-1.326.569-1.326 1.271 0 .703.593 1.272 1.326 1.272.733 0 1.327-.569 1.327-1.272 0-.03-.006-.056-.009-.085l2.062-.662a2.82 2.82 0 0 1-.214-.606z"/><ellipse cx="10.368" cy="10.423" rx="2.279" ry="2.393"/></g></g></svg>