<svg width="30" height="39" xmlns="http://www.w3.org/2000/svg"><defs><linearGradient x1="0%" y1="0%" x2="102%" y2="101%" id="b"><stop stop-color="#51C7FF" offset="0%"/><stop stop-color="#8407C3" offset="100%"/></linearGradient><linearGradient x1="50%" y1="0%" x2="50%" y2="100%" id="a"><stop stop-color="#C8C8C8" offset="0%"/><stop stop-color="#979797" offset="100%"/></linearGradient></defs><g fill="none"><path d="M16.026 2.325C8.32 2.325 2.05 8.638 2.05 16.399a14.07 14.07 0 0 0 3.01 8.716L16.025 39 26.99 25.115A14.07 14.07 0 0 0 30 16.399c0-7.76-6.269-14.074-13.974-14.074z" stroke="url(#a)" fill="url(#b)" transform="translate(-1 -1)"/><path d="M21.036 16.495c0-3.441-2.407-6.28-5.476-6.588V7.041c0-.335-.248-.607-.553-.607-.306 0-.554.272-.554.607v2.866c-3.069.308-5.476 3.148-5.476 6.588v.01c.006 3.65 2.715 6.605 6.03 6.605 3.31 0 6.024-2.95 6.03-6.605v-.01zm-10.518-2.219h1.258a12.435 12.435 0 0 0-.177 1.62h-1.485a5.8 5.8 0 0 1 .404-1.62zm.007 4.452a5.767 5.767 0 0 1-.409-1.618h1.483c.026.557.087 1.1.18 1.618h-1.254zm.695 1.214h.851c.135.437.296.85.497 1.243a5.104 5.104 0 0 1-1.348-1.243zm.846-6.88h-.858c.38-.504.84-.931 1.36-1.258a7.72 7.72 0 0 0-.502 1.258zm2.388 8.658c-.56-.353-.96-1.122-1.203-1.778h1.203v1.778zm0-2.992h-1.545a10.847 10.847 0 0 1-.201-1.618h1.746v1.618zm0-2.833h-1.747c.027-.564.095-1.108.198-1.618h1.549v1.618zm0-2.833h-1.21c.244-.66.645-1.437 1.21-1.793v1.793zm4.351 0h-.858a7.721 7.721 0 0 0-.501-1.258c.52.327.98.754 1.36 1.258zM15.56 11.27c.564.356.965 1.134 1.209 1.793H15.56V11.27zm0 10.451v-1.778h1.203c-.243.655-.642 1.425-1.203 1.778zm1.545-2.992H15.56V17.11h1.746a10.844 10.844 0 0 1-.2 1.618zm-1.545-2.833v-1.618h1.548c.104.51.171 1.054.199 1.618H15.56zm1.886 5.29c.201-.394.362-.807.496-1.242h.851c-.376.497-.833.92-1.347 1.242zm2.043-2.457h-1.254c.093-.518.154-1.06.18-1.618h1.483a5.77 5.77 0 0 1-.41 1.618zm-1.074-2.833c-.025-.557-.085-1.1-.177-1.618h1.257a5.77 5.77 0 0 1 .404 1.618h-1.484zm3.431 6.569l-.442-.899-.442.899-.808.491.808.491.442.899.442-.899.808-.491zM9.713 9.677l-.883.294-.882-.294.258 1.003-.258 1.004.882-.294.883.294-.259-1.004zM8.36 20.72l-.339-.698-.337.699-.618.382.618.382.337.699.338-.699.618-.382zm13.823-10.345l-.338-.698-.338.698-.618.382.618.383.338.698.338-.698.618-.383zM11.33 22.802l-.882.294-.882-.294.258 1.003-.258 1.004.882-.294.882.294-.258-1.004z" fill="#FFF"/></g></svg>