<svg width="30" height="39" xmlns="http://www.w3.org/2000/svg"><defs><linearGradient x1="0%" y1="0%" x2="102%" y2="101%" id="b"><stop stop-color="#51C7FF" offset="0%"/><stop stop-color="#8407C3" offset="100%"/></linearGradient><linearGradient x1="50%" y1="0%" x2="50%" y2="100%" id="a"><stop stop-color="#C8C8C8" offset="0%"/><stop stop-color="#979797" offset="100%"/></linearGradient></defs><g fill="none"><path d="M16.026 2.325C8.32 2.325 2.05 8.638 2.05 16.399a14.07 14.07 0 0 0 3.01 8.716L16.025 39 26.99 25.115A14.07 14.07 0 0 0 30 16.399c0-7.76-6.269-14.074-13.974-14.074z" stroke="url(#a)" fill="url(#b)" transform="translate(-1 -1)"/><g transform="translate(5.154 5.199)" fill="#FFF"><path d="M13.676 15.977c0 .3-.324.545-.725.545H3.52c-.401 0-.726-.244-.726-.545V8.884c0-.302.325-.546.726-.546h9.431c.4 0 .725.245.725.546v7.093z"/><ellipse cx="5.588" cy="6.176" rx="1.765" ry="1.853"/><ellipse cx="10.588" cy="5.713" rx="2.353" ry="2.471"/><path d="M17.647 16.514s-.059.471-.47.471c-.412 0-3.06-2.636-3.06-2.982v-3.454c0-.347 2.589-2.983 3.06-2.983.47 0 .47.471.47.471v8.477z"/></g></g></svg>