<svg width="30" height="39" xmlns="http://www.w3.org/2000/svg"><defs><linearGradient x1="0%" y1="0%" x2="102%" y2="101%" id="b"><stop stop-color="#51C7FF" offset="0%"/><stop stop-color="#8407C3" offset="100%"/></linearGradient><linearGradient x1="50%" y1="0%" x2="50%" y2="100%" id="a"><stop stop-color="#C8C8C8" offset="0%"/><stop stop-color="#979797" offset="100%"/></linearGradient></defs><g fill="none"><path d="M16.026 2.325C8.32 2.325 2.05 8.638 2.05 16.399a14.07 14.07 0 0 0 3.01 8.716L16.025 39 26.99 25.115A14.07 14.07 0 0 0 30 16.399c0-7.76-6.269-14.074-13.974-14.074z" stroke="url(#a)" fill="url(#b)" transform="translate(-1 -1)"/><path d="M21.098 13.037c-.743-.799-1.64-1.199-2.69-1.199h-6.656c-1.05 0-1.947.4-2.69 1.2-.743.798-1.114 1.763-1.114 2.892 0 1.13.372 2.094 1.114 2.893.743.8 1.64 1.2 2.69 1.2.95 0 1.788-.342 2.511-1.024h1.635c.723.682 1.56 1.023 2.51 1.023 1.05 0 1.947-.4 2.69-1.199.743-.799 1.115-1.763 1.115-2.893s-.372-2.094-1.115-2.893zm-6.974 3.403a.259.259 0 0 1-.066.183.22.22 0 0 1-.169.072h-1.412v1.528a.259.259 0 0 1-.066.183.22.22 0 0 1-.169.072h-.941a.22.22 0 0 1-.17-.072.259.259 0 0 1-.065-.183v-1.528H9.654a.22.22 0 0 1-.17-.072.259.259 0 0 1-.065-.183v-1.02a.26.26 0 0 1 .066-.182.22.22 0 0 1 .169-.072h1.412v-1.529a.26.26 0 0 1 .066-.183.22.22 0 0 1 .169-.072h.941a.22.22 0 0 1 .17.072.26.26 0 0 1 .065.183v1.529h1.412a.22.22 0 0 1 .17.072.26.26 0 0 1 .065.183v1.019zm3.985 1.126a.9.9 0 0 1-.676.294.9.9 0 0 1-.676-.294.991.991 0 0 1-.28-.71c0-.276.094-.513.28-.709a.9.9 0 0 1 .676-.294.9.9 0 0 1 .676.294c.187.196.28.433.28.71a.992.992 0 0 1-.28.71zm1.912-2.007a.9.9 0 0 1-.676.294.899.899 0 0 1-.676-.294.992.992 0 0 1-.28-.71c0-.277.093-.513.28-.71a.899.899 0 0 1 .676-.293c.264 0 .49.098.676.294.186.196.28.432.28.71a.991.991 0 0 1-.28.71z" fill="#FFF"/></g></svg>