<svg width="30" height="39" xmlns="http://www.w3.org/2000/svg"><defs><linearGradient x1="0%" y1="0%" x2="102%" y2="101%" id="b"><stop stop-color="#51C7FF" offset="0%"/><stop stop-color="#8407C3" offset="100%"/></linearGradient><linearGradient x1="50%" y1="0%" x2="50%" y2="100%" id="a"><stop stop-color="#C8C8C8" offset="0%"/><stop stop-color="#979797" offset="100%"/></linearGradient></defs><g fill="none"><path d="M16.026 2.325C8.32 2.325 2.05 8.638 2.05 16.399a14.07 14.07 0 0 0 3.01 8.716L16.025 39 26.99 25.115A14.07 14.07 0 0 0 30 16.399c0-7.76-6.269-14.074-13.974-14.074z" stroke="url(#a)" fill="url(#b)" transform="translate(-1 -1)"/><g fill="#FFF"><path d="M19.28 10.948c-.423-1.47-.908-2.816-.908-2.816s.159.643-.708 2.112c-1.207 2.04-1.134 1.854-7.951 11.755l1.755 2.501 7.549-11.463s.688-.621.263-2.09zm-1.532 5.214l-1.712 2.488 3.11 6.005 1.743-2.538zm-3.919-1.235l1.472-2.519-1.216-2.727s-.496-.844-.43-1.394l-.903 2.843s-.296.75.141 1.57c.435.82.936 2.227.936 2.227z"/><path d="M17.746 9.522s.772-1.072.39-1.82c0 0-1.697-1.329-4.028-.187 0 0-.741.431.2 2.007 0 0 2.276-.591 3.438 0z"/></g></g></svg>